<?xml version="1.0" encoding="UTF-8"?>
<!DOCTYPE svg PUBLIC "-//W3C//DTD SVG 1.1//EN" "http://www.w3.org/Graphics/SVG/1.1/DTD/svg11.dtd">
<svg xmlns="http://www.w3.org/2000/svg" version="1.1" width="628px" height="628px" style="shape-rendering:geometricPrecision; text-rendering:geometricPrecision; image-rendering:optimizeQuality; fill-rule:evenodd; clip-rule:evenodd" xmlns:xlink="http://www.w3.org/1999/xlink">
<g><path style="opacity:0.066" fill="#010101" d="M 298.5,31.5 C 406.528,28.0995 491.695,70.0995 554,157.5C 600.397,232.86 612.397,313.526 590,399.5C 563.779,487.06 508.612,548.893 424.5,585C 350.5,612.333 276.5,612.333 202.5,585C 114.481,546.785 58.3145,481.285 34,388.5C 16.8657,311.79 27.199,239.123 65,170.5C 119.032,84.5538 196.865,38.2205 298.5,31.5 Z"/></g>
<g><path style="opacity:1" fill="#9f9f9f" d="M 478.5,94.5 C 476.329,96.1432 473.829,97.4765 471,98.5C 469.238,98.0556 469.405,97.5556 471.5,97C 468.56,94.3747 465.393,92.208 462,90.5C 457.723,89.3519 453.39,89.3519 449,90.5C 448.085,91.3279 447.419,92.3279 447,93.5C 446.692,92.6919 446.192,92.0253 445.5,91.5C 444.167,91.8333 442.833,92.1667 441.5,92.5C 424.447,86.2678 407.28,85.9345 390,91.5C 388.657,90.7865 387.324,91.1198 386,92.5C 384.609,90.2849 382.943,90.2849 381,92.5C 378.501,91.1779 377.001,89.1779 376.5,86.5C 374.801,86.3796 373.135,86.0463 371.5,85.5C 368.685,88.0712 365.685,88.5712 362.5,87C 362.833,86.6667 363.167,86.3333 363.5,86C 361.888,85.2797 360.388,85.4464 359,86.5C 356.833,84.3333 354.667,82.1667 352.5,80C 347.665,80.4183 343.331,78.9183 339.5,75.5C 337.262,78.4327 336.262,78.0993 336.5,74.5C 328.9,73.1787 321.233,72.1787 313.5,71.5C 309.122,71.6222 304.789,72.1222 300.5,73C 296.012,74.8114 291.346,75.8114 286.5,76C 282.756,79.0268 278.423,80.6934 273.5,81C 271.291,82.8734 269.458,85.04 268,87.5C 267,84.8333 266,84.8333 265,87.5C 264.667,86.8333 264.333,86.1667 264,85.5C 263.632,86.91 262.799,87.91 261.5,88.5C 259.102,86.896 256.435,85.896 253.5,85.5C 251.437,88.2819 248.937,90.6152 246,92.5C 238.848,91.5456 232.181,89.879 226,87.5C 216.645,87.4113 207.145,87.578 197.5,88C 192.743,88.4147 188.243,89.5814 184,91.5C 183,90.8333 182,90.1667 181,89.5C 176.557,90.4143 172.057,91.4143 167.5,92.5C 164.619,90.9245 162.119,91.2578 160,93.5C 158.16,92.1669 157.66,92.3335 158.5,94C 155.062,96.2492 150.895,97.7492 146,98.5C 145.235,98.4301 144.735,98.0967 144.5,97.5C 210.609,46.8329 284.942,28.9995 367.5,44C 408.617,52.2939 445.617,69.1272 478.5,94.5 Z"/></g>
<g><path style="opacity:1" fill="#989898" d="M 478.5,94.5 C 497.48,107.814 513.814,123.814 527.5,142.5C 525.881,142.596 524.215,142.596 522.5,142.5C 521.522,142.977 520.689,143.643 520,144.5C 518.011,144.679 516.011,144.012 514,142.5C 506.219,143.073 498.386,143.407 490.5,143.5C 489.808,142.975 489.308,142.308 489,141.5C 487.688,143.658 486.022,143.991 484,142.5C 482.333,143.167 480.667,143.833 479,144.5C 477.951,142.893 476.451,142.227 474.5,142.5C 474.034,140.799 474.034,139.299 474.5,138C 472.402,137.986 470.569,138.153 469,138.5C 467.043,136.411 464.876,135.577 462.5,136C 461.167,135 461.167,134 462.5,133C 460.901,131.934 459.901,130.434 459.5,128.5C 457.392,127.056 455.059,126.39 452.5,126.5C 452.649,125.448 452.483,124.448 452,123.5C 451.667,123.833 451.333,124.167 451,124.5C 449.748,122.999 448.748,121.332 448,119.5C 444.526,120.928 444.026,120.428 446.5,118C 445.551,117.383 444.718,117.549 444,118.5C 441.512,115.677 438.678,114.177 435.5,114C 436.167,113.667 436.833,113.333 437.5,113C 436.216,112.316 435.049,112.483 434,113.5C 430.025,110.31 425.691,108.977 421,109.5C 420.683,107.699 420.016,107.366 419,108.5C 417.559,107.74 416.059,107.074 414.5,106.5C 407.28,107.035 399.947,108.202 392.5,110C 388.911,112.848 385.244,113.348 381.5,111.5C 379.189,112.214 377.022,113.214 375,114.5C 373.355,114.307 371.521,114.14 369.5,114C 368.874,113.25 368.374,112.416 368,111.5C 367.692,112.308 367.192,112.975 366.5,113.5C 365.575,112.359 364.741,112.359 364,113.5C 360.853,108.723 356.853,104.056 352,99.5C 350.951,100.517 349.784,100.684 348.5,100C 348.833,99.6667 349.167,99.3333 349.5,99C 348.5,98.6667 347.5,98.3333 346.5,98C 343.938,95.5686 341.438,93.0686 339,90.5C 338.586,90.9574 338.086,91.2907 337.5,91.5C 328.857,86.802 320.024,84.4687 311,84.5C 310.333,85.1667 309.667,85.8333 309,86.5C 307.601,86.4988 306.101,86.1654 304.5,85.5C 298.309,87.4506 292.309,89.7839 286.5,92.5C 282.043,97.0464 277.376,100.046 272.5,101.5C 272.649,102.552 272.483,103.552 272,104.5C 269.433,107.731 266.266,110.231 262.5,112C 263.654,112.914 263.487,113.747 262,114.5C 260.488,113.743 259.154,112.743 258,111.5C 257.242,113.91 255.575,114.91 253,114.5C 250.333,114.833 248.333,113.833 247,111.5C 244.8,113.831 242.8,113.831 241,111.5C 240.439,112.022 239.772,112.355 239,112.5C 235.539,111.434 232.206,110.101 229,108.5C 227.612,109.554 226.112,109.72 224.5,109C 224.833,108.667 225.167,108.333 225.5,108C 222.964,107.661 220.464,107.161 218,106.5C 215.343,107.146 212.677,107.812 210,108.5C 209,107.833 208,107.167 207,106.5C 201.109,107.962 195.609,110.295 190.5,113.5C 189.549,112.674 188.549,112.508 187.5,113C 185.173,116.169 182.173,118.336 178.5,119.5C 176.667,121.833 174.833,124.167 173,126.5C 172.667,126.167 172.333,125.833 172,125.5C 170.175,126.103 168.341,126.77 166.5,127.5C 165.82,129.889 164.986,132.222 164,134.5C 162.701,134.034 161.201,134.034 159.5,134.5C 159.539,136.359 158.706,137.692 157,138.5C 155.374,137.903 153.541,137.903 151.5,138.5C 150.985,140.225 150.318,141.892 149.5,143.5C 145.775,142.971 141.942,142.971 138,143.5C 136.691,141.109 135.691,141.109 135,143.5C 133.111,142.911 131.111,142.577 129,142.5C 127.209,144.513 125.875,144.513 125,142.5C 124.667,143.167 124.333,143.833 124,144.5C 123.612,143.572 122.945,142.905 122,142.5C 116.04,143.014 110.374,143.347 105,143.5C 103.5,143 102,142.5 100.5,142C 101.252,141.329 101.586,140.496 101.5,139.5C 113.872,123.461 128.205,109.461 144.5,97.5C 144.735,98.0967 145.235,98.4301 146,98.5C 150.895,97.7492 155.062,96.2492 158.5,94C 157.66,92.3335 158.16,92.1669 160,93.5C 162.119,91.2578 164.619,90.9245 167.5,92.5C 172.057,91.4143 176.557,90.4143 181,89.5C 182,90.1667 183,90.8333 184,91.5C 188.243,89.5814 192.743,88.4147 197.5,88C 207.145,87.578 216.645,87.4113 226,87.5C 232.181,89.879 238.848,91.5456 246,92.5C 248.937,90.6152 251.437,88.2819 253.5,85.5C 256.435,85.896 259.102,86.896 261.5,88.5C 262.799,87.91 263.632,86.91 264,85.5C 264.333,86.1667 264.667,86.8333 265,87.5C 266,84.8333 267,84.8333 268,87.5C 269.458,85.04 271.291,82.8734 273.5,81C 278.423,80.6934 282.756,79.0268 286.5,76C 291.346,75.8114 296.012,74.8114 300.5,73C 304.789,72.1222 309.122,71.6222 313.5,71.5C 321.233,72.1787 328.9,73.1787 336.5,74.5C 336.262,78.0993 337.262,78.4327 339.5,75.5C 343.331,78.9183 347.665,80.4183 352.5,80C 354.667,82.1667 356.833,84.3333 359,86.5C 360.388,85.4464 361.888,85.2797 363.5,86C 363.167,86.3333 362.833,86.6667 362.5,87C 365.685,88.5712 368.685,88.0712 371.5,85.5C 373.135,86.0463 374.801,86.3796 376.5,86.5C 377.001,89.1779 378.501,91.1779 381,92.5C 382.943,90.2849 384.609,90.2849 386,92.5C 387.324,91.1198 388.657,90.7865 390,91.5C 407.28,85.9345 424.447,86.2678 441.5,92.5C 442.833,92.1667 444.167,91.8333 445.5,91.5C 446.192,92.0253 446.692,92.6919 447,93.5C 447.419,92.3279 448.085,91.3279 449,90.5C 453.39,89.3519 457.723,89.3519 462,90.5C 465.393,92.208 468.56,94.3747 471.5,97C 469.405,97.5556 469.238,98.0556 471,98.5C 473.829,97.4765 476.329,96.1432 478.5,94.5 Z"/></g>
<g><path style="opacity:1" fill="#929292" d="M 527.5,142.5 C 538.059,154.735 547.059,168.069 554.5,182.5C 553.918,183.931 553.085,185.264 552,186.5C 550.853,185.542 549.853,185.875 549,187.5C 548.376,181.71 545.209,178.377 539.5,177.5C 538.262,181.311 537.596,181.311 537.5,177.5C 535.801,177.34 534.134,177.506 532.5,178C 533.451,178.718 533.617,179.551 533,180.5C 529.967,176.968 526.467,173.968 522.5,171.5C 520.591,172.348 518.591,172.682 516.5,172.5C 516.649,171.448 516.483,170.448 516,169.5C 515.481,170.516 514.647,171.182 513.5,171.5C 507.471,169.421 501.638,167.754 496,166.5C 494.578,167.205 493.245,167.539 492,167.5C 487.381,164.906 482.714,164.906 478,167.5C 476.238,167.056 476.405,166.556 478.5,166C 474.485,164.902 470.485,164.736 466.5,165.5C 464.885,164.846 463.218,164.346 461.5,164C 461.833,163.667 462.167,163.333 462.5,163C 458.089,161.337 455.755,158.171 455.5,153.5C 453.833,153.5 452.167,153.5 450.5,153.5C 450.034,151.799 450.034,150.299 450.5,149C 449.419,145.417 447.086,142.917 443.5,141.5C 441.767,138.941 440.267,136.275 439,133.5C 436.509,131.71 434.342,129.543 432.5,127C 431.184,126.472 430.517,126.972 430.5,128.5C 429.252,125.516 427.585,122.682 425.5,120C 421.141,119.466 416.808,119.632 412.5,120.5C 412.083,119.876 411.416,119.543 410.5,119.5C 401.228,119.649 392.894,121.982 385.5,126.5C 382.781,125.745 380.281,126.411 378,128.5C 377.333,127.833 376.667,127.167 376,126.5C 374.796,127.471 374.296,128.471 374.5,129.5C 373.784,128.689 372.95,128.022 372,127.5C 369.13,128.422 366.13,128.422 363,127.5C 361.676,126.12 360.343,125.786 359,126.5C 357.152,124.321 354.985,122.487 352.5,121C 352.833,120.667 353.167,120.333 353.5,120C 349.997,116.992 346.997,113.492 344.5,109.5C 339.345,105.662 333.511,101.995 327,98.5C 326.601,98.7284 326.435,99.0618 326.5,99.5C 322.738,95.449 318.404,92.1157 313.5,89.5C 308.578,92.0917 304.244,95.425 300.5,99.5C 298.213,99.7239 296.047,100.391 294,101.5C 289.348,104.655 284.848,107.988 280.5,111.5C 278.666,113.977 277.333,116.643 276.5,119.5C 275.448,119.351 274.448,119.517 273.5,120C 273.833,120.333 274.167,120.667 274.5,121C 273,121.833 271.833,123 271,124.5C 270.667,124.167 270.333,123.833 270,123.5C 269.716,125.886 268.716,126.552 267,125.5C 264.731,127.269 262.398,127.935 260,127.5C 259.667,128.167 259.333,128.833 259,129.5C 257.127,130.089 255.46,129.422 254,127.5C 253.612,128.428 252.945,129.095 252,129.5C 243.29,127.095 234.457,124.095 225.5,120.5C 224.914,120.709 224.414,121.043 224,121.5C 221.595,120.726 219.095,120.226 216.5,120C 217.888,119.111 217.722,118.611 216,118.5C 214.317,119.176 214.15,120.176 215.5,121.5C 210.959,119.849 206.293,119.349 201.5,120C 199.996,122.514 198.662,125.014 197.5,127.5C 196.998,125.915 195.998,125.415 194.5,126C 191.383,129.995 187.717,134.162 183.5,138.5C 182.754,139.736 182.421,141.07 182.5,142.5C 181.022,142.238 179.689,142.571 178.5,143.5C 178.709,144.086 179.043,144.586 179.5,145C 178.167,146 176.833,147 175.5,148C 176.167,148.333 176.833,148.667 177.5,149C 175.808,150.401 175.141,152.234 175.5,154.5C 172.729,154.421 170.063,154.921 167.5,156C 168.5,156.333 169.5,156.667 170.5,157C 168.809,158.405 166.976,159.572 165,160.5C 164.517,161.448 164.351,162.448 164.5,163.5C 162.801,163.34 161.134,163.506 159.5,164C 160.888,164.889 160.722,165.389 159,165.5C 154.971,163.935 151.305,164.935 148,168.5C 136.148,165.627 124.481,166.96 113,172.5C 110.67,170.957 108.17,170.457 105.5,171C 106.5,171.333 107.5,171.667 108.5,172C 106.765,172.651 105.098,172.485 103.5,171.5C 100.615,174.546 97.2816,177.046 93.5,179C 89.4103,178.423 85.4103,178.423 81.5,179C 78.8055,181.566 77.3055,184.399 77,187.5C 75.1239,186.391 73.2905,185.391 71.5,184.5C 79.7664,168.287 89.7664,153.287 101.5,139.5C 101.586,140.496 101.252,141.329 100.5,142C 102,142.5 103.5,143 105,143.5C 110.374,143.347 116.04,143.014 122,142.5C 122.945,142.905 123.612,143.572 124,144.5C 124.333,143.833 124.667,143.167 125,142.5C 125.875,144.513 127.209,144.513 129,142.5C 131.111,142.577 133.111,142.911 135,143.5C 135.691,141.109 136.691,141.109 138,143.5C 141.942,142.971 145.775,142.971 149.5,143.5C 150.318,141.892 150.985,140.225 151.5,138.5C 153.541,137.903 155.374,137.903 157,138.5C 158.706,137.692 159.539,136.359 159.5,134.5C 161.201,134.034 162.701,134.034 164,134.5C 164.986,132.222 165.82,129.889 166.5,127.5C 168.341,126.77 170.175,126.103 172,125.5C 172.333,125.833 172.667,126.167 173,126.5C 174.833,124.167 176.667,121.833 178.5,119.5C 182.173,118.336 185.173,116.169 187.5,113C 188.549,112.508 189.549,112.674 190.5,113.5C 195.609,110.295 201.109,107.962 207,106.5C 208,107.167 209,107.833 210,108.5C 212.677,107.812 215.343,107.146 218,106.5C 220.464,107.161 222.964,107.661 225.5,108C 225.167,108.333 224.833,108.667 224.5,109C 226.112,109.72 227.612,109.554 229,108.5C 232.206,110.101 235.539,111.434 239,112.5C 239.772,112.355 240.439,112.022 241,111.5C 242.8,113.831 244.8,113.831 247,111.5C 248.333,113.833 250.333,114.833 253,114.5C 255.575,114.91 257.242,113.91 258,111.5C 259.154,112.743 260.488,113.743 262,114.5C 263.487,113.747 263.654,112.914 262.5,112C 266.266,110.231 269.433,107.731 272,104.5C 272.483,103.552 272.649,102.552 272.5,101.5C 277.376,100.046 282.043,97.0464 286.5,92.5C 292.309,89.7839 298.309,87.4506 304.5,85.5C 306.101,86.1654 307.601,86.4988 309,86.5C 309.667,85.8333 310.333,85.1667 311,84.5C 320.024,84.4687 328.857,86.802 337.5,91.5C 338.086,91.2907 338.586,90.9574 339,90.5C 341.438,93.0686 343.938,95.5686 346.5,98C 347.5,98.3333 348.5,98.6667 349.5,99C 349.167,99.3333 348.833,99.6667 348.5,100C 349.784,100.684 350.951,100.517 352,99.5C 356.853,104.056 360.853,108.723 364,113.5C 364.741,112.359 365.575,112.359 366.5,113.5C 367.192,112.975 367.692,112.308 368,111.5C 368.374,112.416 368.874,113.25 369.5,114C 371.521,114.14 373.355,114.307 375,114.5C 377.022,113.214 379.189,112.214 381.5,111.5C 385.244,113.348 388.911,112.848 392.5,110C 399.947,108.202 407.28,107.035 414.5,106.5C 416.059,107.074 417.559,107.74 419,108.5C 420.016,107.366 420.683,107.699 421,109.5C 425.691,108.977 430.025,110.31 434,113.5C 435.049,112.483 436.216,112.316 437.5,113C 436.833,113.333 436.167,113.667 435.5,114C 438.678,114.177 441.512,115.677 444,118.5C 444.718,117.549 445.551,117.383 446.5,118C 444.026,120.428 444.526,120.928 448,119.5C 448.748,121.332 449.748,122.999 451,124.5C 451.333,124.167 451.667,123.833 452,123.5C 452.483,124.448 452.649,125.448 452.5,126.5C 455.059,126.39 457.392,127.056 459.5,128.5C 459.901,130.434 460.901,131.934 462.5,133C 461.167,134 461.167,135 462.5,136C 464.876,135.577 467.043,136.411 469,138.5C 470.569,138.153 472.402,137.986 474.5,138C 474.034,139.299 474.034,140.799 474.5,142.5C 476.451,142.227 477.951,142.893 479,144.5C 480.667,143.833 482.333,143.167 484,142.5C 486.022,143.991 487.688,143.658 489,141.5C 489.308,142.308 489.808,142.975 490.5,143.5C 498.386,143.407 506.219,143.073 514,142.5C 516.011,144.012 518.011,144.679 520,144.5C 520.689,143.643 521.522,142.977 522.5,142.5C 524.215,142.596 525.881,142.596 527.5,142.5 Z"/></g>
<g><path style="opacity:1" fill="#ededed" d="M 326.5,99.5 C 333.757,111.278 338.424,123.945 340.5,137.5C 342.037,169.184 339.704,200.517 333.5,231.5C 320.197,228.86 306.864,228.86 293.5,231.5C 289.371,212.432 287.038,193.099 286.5,173.5C 286.5,161.5 286.5,149.5 286.5,137.5C 288.576,123.945 293.243,111.278 300.5,99.5C 304.244,95.425 308.578,92.0917 313.5,89.5C 318.404,92.1157 322.738,95.449 326.5,99.5 Z"/></g>
<g><path style="opacity:1" fill="#8b8b8b" d="M 412.5,120.5 C 396.439,128.222 383.439,139.555 373.5,154.5C 370.609,153.753 368.109,154.753 366,157.5C 364.965,154.214 363.465,153.88 361.5,156.5C 359.291,155.894 357.124,155.227 355,154.5C 354.667,154.833 354.333,155.167 354,155.5C 352.519,151.873 350.519,148.54 348,145.5C 347.667,145.833 347.333,146.167 347,146.5C 344.591,142.743 342.591,138.743 341,134.5C 340.517,135.448 340.351,136.448 340.5,137.5C 338.424,123.945 333.757,111.278 326.5,99.5C 326.435,99.0618 326.601,98.7284 327,98.5C 333.511,101.995 339.345,105.662 344.5,109.5C 346.997,113.492 349.997,116.992 353.5,120C 353.167,120.333 352.833,120.667 352.5,121C 354.985,122.487 357.152,124.321 359,126.5C 360.343,125.786 361.676,126.12 363,127.5C 366.13,128.422 369.13,128.422 372,127.5C 372.95,128.022 373.784,128.689 374.5,129.5C 374.296,128.471 374.796,127.471 376,126.5C 376.667,127.167 377.333,127.833 378,128.5C 380.281,126.411 382.781,125.745 385.5,126.5C 392.894,121.982 401.228,119.649 410.5,119.5C 411.416,119.543 412.083,119.876 412.5,120.5 Z"/></g>
<g><path style="opacity:1" fill="#8b8b8b" d="M 300.5,99.5 C 293.243,111.278 288.576,123.945 286.5,137.5C 286.631,136.761 286.464,136.094 286,135.5C 285.293,137.081 284.46,138.581 283.5,140C 283.833,140.333 284.167,140.667 284.5,141C 283.584,141.374 282.75,141.874 282,142.5C 278.217,147.493 274.884,152.16 272,156.5C 271.586,156.043 271.086,155.709 270.5,155.5C 269.751,157.012 268.584,158.012 267,158.5C 265.85,157.576 264.85,157.576 264,158.5C 262.983,155.972 261.816,155.972 260.5,158.5C 259.252,157.96 258.085,157.293 257,156.5C 256.536,157.094 256.369,157.761 256.5,158.5C 248.792,146.295 239.125,135.795 227.5,127C 223.593,124.879 219.593,123.045 215.5,121.5C 214.15,120.176 214.317,119.176 216,118.5C 217.722,118.611 217.888,119.111 216.5,120C 219.095,120.226 221.595,120.726 224,121.5C 224.414,121.043 224.914,120.709 225.5,120.5C 234.457,124.095 243.29,127.095 252,129.5C 252.945,129.095 253.612,128.428 254,127.5C 255.46,129.422 257.127,130.089 259,129.5C 259.333,128.833 259.667,128.167 260,127.5C 262.398,127.935 264.731,127.269 267,125.5C 268.716,126.552 269.716,125.886 270,123.5C 270.333,123.833 270.667,124.167 271,124.5C 271.833,123 273,121.833 274.5,121C 274.167,120.667 273.833,120.333 273.5,120C 274.448,119.517 275.448,119.351 276.5,119.5C 277.333,116.643 278.666,113.977 280.5,111.5C 284.848,107.988 289.348,104.655 294,101.5C 296.047,100.391 298.213,99.7239 300.5,99.5 Z"/></g>
<g><path style="opacity:1" fill="#e2e2e2" d="M 430.5,128.5 C 431.32,134.797 431.653,141.131 431.5,147.5C 430.323,156.031 428.323,164.364 425.5,172.5C 421.107,181.618 416.441,190.618 411.5,199.5C 401.994,215.007 391.327,229.674 379.5,243.5C 376.834,242.158 374.501,240.325 372.5,238C 375.424,233.117 375.091,228.617 371.5,224.5C 373.753,212.883 375.086,201.383 375.5,190C 374.552,189.517 373.552,189.351 372.5,189.5C 372.5,178.833 372.5,168.167 372.5,157.5C 372.557,156.391 372.89,155.391 373.5,154.5C 383.439,139.555 396.439,128.222 412.5,120.5C 416.808,119.632 421.141,119.466 425.5,120C 427.585,122.682 429.252,125.516 430.5,128.5 Z"/></g>
<g><path style="opacity:1" fill="#8c8c8c" d="M 197.5,127.5 C 196.402,132.092 195.735,136.759 195.5,141.5C 194.961,144.085 193.628,146.252 191.5,148C 191.833,148.333 192.167,148.667 192.5,149C 191.736,151.069 191.236,153.236 191,155.5C 188.518,157.159 187.018,159.492 186.5,162.5C 186.751,165.375 186.751,168.541 186.5,172C 184.945,173.646 183.279,173.979 181.5,173C 181.833,173.333 182.167,173.667 182.5,174C 180.651,175.093 178.984,176.426 177.5,178C 177.833,178.333 178.167,178.667 178.5,179C 175.833,179 173.167,179 170.5,179C 169.874,179.75 169.374,180.584 169,181.5C 163.934,181.113 158.768,181.113 153.5,181.5C 153.587,184.598 153.087,184.932 152,182.5C 151.374,184.991 150.541,184.991 149.5,182.5C 148.808,183.025 148.308,183.692 148,184.5C 147.692,183.692 147.192,183.025 146.5,182.5C 134.902,184.639 123.902,187.805 113.5,192C 113.833,192.333 114.167,192.667 114.5,193C 112.731,194.019 111.064,194.186 109.5,193.5C 107.315,196.887 104.481,199.554 101,201.5C 99.8945,206.005 97.2278,208.005 93,207.5C 92.7638,209.764 92.2638,211.931 91.5,214C 90.3284,214.353 89.1618,214.187 88,213.5C 87.5,213.667 87,213.833 86.5,214C 87.3081,214.308 87.9747,214.808 88.5,215.5C 84.8343,216.886 81.1677,217.219 77.5,216.5C 76.5258,218.743 76.1924,221.076 76.5,223.5C 71.5656,223.287 66.7322,223.62 62,224.5C 60.33,222.302 58.33,221.968 56,223.5C 55.5172,222.552 55.3505,221.552 55.5,220.5C 59.218,207.735 64.5514,195.735 71.5,184.5C 73.2905,185.391 75.1239,186.391 77,187.5C 77.3055,184.399 78.8055,181.566 81.5,179C 85.4103,178.423 89.4103,178.423 93.5,179C 97.2816,177.046 100.615,174.546 103.5,171.5C 105.098,172.485 106.765,172.651 108.5,172C 107.5,171.667 106.5,171.333 105.5,171C 108.17,170.457 110.67,170.957 113,172.5C 124.481,166.96 136.148,165.627 148,168.5C 151.305,164.935 154.971,163.935 159,165.5C 160.722,165.389 160.888,164.889 159.5,164C 161.134,163.506 162.801,163.34 164.5,163.5C 164.351,162.448 164.517,161.448 165,160.5C 166.976,159.572 168.809,158.405 170.5,157C 169.5,156.667 168.5,156.333 167.5,156C 170.063,154.921 172.729,154.421 175.5,154.5C 175.141,152.234 175.808,150.401 177.5,149C 176.833,148.667 176.167,148.333 175.5,148C 176.833,147 178.167,146 179.5,145C 179.043,144.586 178.709,144.086 178.5,143.5C 179.689,142.571 181.022,142.238 182.5,142.5C 182.421,141.07 182.754,139.736 183.5,138.5C 187.717,134.162 191.383,129.995 194.5,126C 195.998,125.415 196.998,125.915 197.5,127.5 Z"/></g>
<g><path style="opacity:1" fill="#8c8c8c" d="M 554.5,182.5 C 562.392,195.288 568.392,208.955 572.5,223.5C 572.44,224.043 572.107,224.376 571.5,224.5C 569.056,221.929 566.556,221.929 564,224.5C 559.224,223.413 554.391,222.746 549.5,222.5C 549.167,220.5 548.833,218.5 548.5,216.5C 545.214,217.207 541.881,217.54 538.5,217.5C 538.67,216.178 538.337,215.011 537.5,214C 534.679,213.426 532.346,212.092 530.5,210C 532.878,209.026 532.544,208.359 529.5,208C 529.833,207.667 530.167,207.333 530.5,207C 528.775,207.409 527.108,207.242 525.5,206.5C 526.376,205.749 527.376,205.249 528.5,205C 525.906,204.37 523.573,203.203 521.5,201.5C 520.359,200.575 520.359,199.741 521.5,199C 507.512,188.125 491.845,182.958 474.5,183.5C 469.696,181.912 464.696,180.912 459.5,180.5C 458.558,180.608 457.725,180.941 457,181.5C 457.608,177.655 455.942,176.655 452,178.5C 451.055,178.095 450.388,177.428 450,176.5C 449.333,179.167 448.667,179.167 448,176.5C 447.282,177.451 446.449,177.617 445.5,177C 444.773,175.601 444.273,174.101 444,172.5C 442.719,172.619 441.552,172.119 440.5,171C 440.287,167.946 440.287,165.28 440.5,163C 439.482,159.015 437.482,155.181 434.5,151.5C 434.709,150.914 435.043,150.414 435.5,150C 434.151,149.228 433.318,148.061 433,146.5C 432.617,147.056 432.117,147.389 431.5,147.5C 431.653,141.131 431.32,134.797 430.5,128.5C 430.517,126.972 431.184,126.472 432.5,127C 434.342,129.543 436.509,131.71 439,133.5C 440.267,136.275 441.767,138.941 443.5,141.5C 447.086,142.917 449.419,145.417 450.5,149C 450.034,150.299 450.034,151.799 450.5,153.5C 452.167,153.5 453.833,153.5 455.5,153.5C 455.755,158.171 458.089,161.337 462.5,163C 462.167,163.333 461.833,163.667 461.5,164C 463.218,164.346 464.885,164.846 466.5,165.5C 470.485,164.736 474.485,164.902 478.5,166C 476.405,166.556 476.238,167.056 478,167.5C 482.714,164.906 487.381,164.906 492,167.5C 493.245,167.539 494.578,167.205 496,166.5C 501.638,167.754 507.471,169.421 513.5,171.5C 514.647,171.182 515.481,170.516 516,169.5C 516.483,170.448 516.649,171.448 516.5,172.5C 518.591,172.682 520.591,172.348 522.5,171.5C 526.467,173.968 529.967,176.968 533,180.5C 533.617,179.551 533.451,178.718 532.5,178C 534.134,177.506 535.801,177.34 537.5,177.5C 537.596,181.311 538.262,181.311 539.5,177.5C 545.209,178.377 548.376,181.71 549,187.5C 549.853,185.875 550.853,185.542 552,186.5C 553.085,185.264 553.918,183.931 554.5,182.5 Z"/></g>
<g><path style="opacity:1" fill="#cbcbcb" d="M 215.5,121.5 C 219.593,123.045 223.593,124.879 227.5,127C 239.125,135.795 248.792,146.295 256.5,158.5C 257.5,160.5 258.5,162.5 259.5,164.5C 259.2,173.533 259.2,183.2 259.5,193.5C 258.603,193.669 257.603,194.002 256.5,194.5C 257.963,197.88 257.63,201.047 255.5,204C 257.101,209.245 256.267,209.745 253,205.5C 251.992,205.982 250.825,206.148 249.5,206C 250.502,207.672 251.668,208.838 253,209.5C 253.373,212.858 252.539,213.192 250.5,210.5C 248.504,211.61 246.671,211.276 245,209.5C 244.05,212.191 243.384,214.857 243,217.5C 234.873,211.193 226.373,205.526 217.5,200.5C 216.833,199.833 216.167,199.167 215.5,198.5C 204.468,181.073 197.801,162.073 195.5,141.5C 195.735,136.759 196.402,132.092 197.5,127.5C 198.662,125.014 199.996,122.514 201.5,120C 206.293,119.349 210.959,119.849 215.5,121.5 Z"/></g>
<g><path style="opacity:1" fill="#7d7d7d" d="M 373.5,154.5 C 372.89,155.391 372.557,156.391 372.5,157.5C 364.566,169.028 357.899,181.361 352.5,194.5C 346.539,206.368 341.539,218.702 337.5,231.5C 333.648,240.739 330.981,250.406 329.5,260.5C 328.5,260.5 327.5,260.5 326.5,260.5C 327.503,257.15 328.503,253.817 329.5,250.5C 331.341,244.294 332.675,237.96 333.5,231.5C 339.704,200.517 342.037,169.184 340.5,137.5C 340.351,136.448 340.517,135.448 341,134.5C 342.591,138.743 344.591,142.743 347,146.5C 347.333,146.167 347.667,145.833 348,145.5C 350.519,148.54 352.519,151.873 354,155.5C 354.333,155.167 354.667,154.833 355,154.5C 357.124,155.227 359.291,155.894 361.5,156.5C 363.465,153.88 364.965,154.214 366,157.5C 368.109,154.753 370.609,153.753 373.5,154.5 Z"/></g>
<g><path style="opacity:1" fill="#828282" d="M 286.5,137.5 C 286.5,149.5 286.5,161.5 286.5,173.5C 285.681,170.695 285.181,167.695 285,164.5C 283.019,166.359 282.019,168.692 282,171.5C 279.818,174.078 277.651,175.912 275.5,177C 275.833,177.333 276.167,177.667 276.5,178C 274.633,178.711 273.133,178.211 272,176.5C 271.015,177.814 269.848,178.814 268.5,179.5C 265.248,174.666 262.248,169.666 259.5,164.5C 258.5,162.5 257.5,160.5 256.5,158.5C 256.369,157.761 256.536,157.094 257,156.5C 258.085,157.293 259.252,157.96 260.5,158.5C 261.816,155.972 262.983,155.972 264,158.5C 264.85,157.576 265.85,157.576 267,158.5C 268.584,158.012 269.751,157.012 270.5,155.5C 271.086,155.709 271.586,156.043 272,156.5C 274.884,152.16 278.217,147.493 282,142.5C 282.75,141.874 283.584,141.374 284.5,141C 284.167,140.667 283.833,140.333 283.5,140C 284.46,138.581 285.293,137.081 286,135.5C 286.464,136.094 286.631,136.761 286.5,137.5 Z"/></g>
<g><path style="opacity:1" fill="#858585" d="M 195.5,141.5 C 197.801,162.073 204.468,181.073 215.5,198.5C 214.883,198.389 214.383,198.056 214,197.5C 212.93,200.242 211.43,202.742 209.5,205C 211.301,205.317 211.634,205.984 210.5,207C 206.996,206.22 203.829,207.053 201,209.5C 199.442,208.655 198.442,209.321 198,211.5C 195.891,209.582 193.725,209.249 191.5,210.5C 182.753,206.128 173.753,202.295 164.5,199C 154.033,195.863 143.367,194.863 132.5,196C 128.735,197.049 125.068,198.382 121.5,200C 120.056,201.126 119.39,202.626 119.5,204.5C 119.997,206.818 120.33,209.152 120.5,211.5C 119.883,211.389 119.383,211.056 119,210.5C 116.946,212.058 115.446,214.058 114.5,216.5C 113.451,221.361 112.451,226.195 111.5,231C 112.925,232.714 112.592,234.047 110.5,235C 110.957,235.414 111.291,235.914 111.5,236.5C 107.277,236.472 106.611,238.305 109.5,242C 108.62,243.356 108.286,244.856 108.5,246.5C 106.146,246.838 103.813,247.338 101.5,248C 102.26,249.441 102.926,250.941 103.5,252.5C 101.833,253.167 100.167,253.833 98.5,254.5C 101.16,257.532 100.493,258.198 96.5,256.5C 94.1083,257.725 91.6083,258.725 89,259.5C 85.5402,256.746 84.7069,257.579 86.5,262C 86.048,264.48 84.8814,264.98 83,263.5C 81.1084,263.777 79.7751,264.777 79,266.5C 77.6012,265.773 76.1012,265.273 74.5,265C 76.9288,264.549 77.0955,263.715 75,262.5C 71.2539,264.514 67.4205,265.347 63.5,265C 60.2377,267.944 56.7377,270.444 53,272.5C 51.6739,272.245 50.6739,271.578 50,270.5C 49.6667,271.167 49.3333,271.833 49,272.5C 48.2588,271.359 47.4255,271.359 46.5,272.5C 45.8076,271.975 45.3076,271.308 45,270.5C 44.3292,271.252 43.4959,271.586 42.5,271.5C 44.2132,253.718 48.5465,236.718 55.5,220.5C 55.3505,221.552 55.5172,222.552 56,223.5C 58.33,221.968 60.33,222.302 62,224.5C 66.7322,223.62 71.5656,223.287 76.5,223.5C 76.1924,221.076 76.5258,218.743 77.5,216.5C 81.1677,217.219 84.8343,216.886 88.5,215.5C 87.9747,214.808 87.3081,214.308 86.5,214C 87,213.833 87.5,213.667 88,213.5C 89.1618,214.187 90.3284,214.353 91.5,214C 92.2638,211.931 92.7638,209.764 93,207.5C 97.2278,208.005 99.8945,206.005 101,201.5C 104.481,199.554 107.315,196.887 109.5,193.5C 111.064,194.186 112.731,194.019 114.5,193C 114.167,192.667 113.833,192.333 113.5,192C 123.902,187.805 134.902,184.639 146.5,182.5C 147.192,183.025 147.692,183.692 148,184.5C 148.308,183.692 148.808,183.025 149.5,182.5C 150.541,184.991 151.374,184.991 152,182.5C 153.087,184.932 153.587,184.598 153.5,181.5C 158.768,181.113 163.934,181.113 169,181.5C 169.374,180.584 169.874,179.75 170.5,179C 173.167,179 175.833,179 178.5,179C 178.167,178.667 177.833,178.333 177.5,178C 178.984,176.426 180.651,175.093 182.5,174C 182.167,173.667 181.833,173.333 181.5,173C 183.279,173.979 184.945,173.646 186.5,172C 186.751,168.541 186.751,165.375 186.5,162.5C 187.018,159.492 188.518,157.159 191,155.5C 191.236,153.236 191.736,151.069 192.5,149C 192.167,148.667 191.833,148.333 191.5,148C 193.628,146.252 194.961,144.085 195.5,141.5 Z"/></g>
<g><path style="opacity:1" fill="#868686" d="M 572.5,223.5 C 578.767,238.469 582.767,254.135 584.5,270.5C 581.809,272.503 579.309,272.503 577,270.5C 576.261,271.574 575.261,272.241 574,272.5C 570.523,269.018 566.523,266.352 562,264.5C 559.547,265.493 557.047,265.66 554.5,265C 555.888,264.111 555.722,263.611 554,263.5C 552.108,263.777 550.775,264.777 550,266.5C 548.601,265.773 547.101,265.273 545.5,265C 547.929,264.549 548.096,263.715 546,262.5C 542.951,265.242 540.451,264.742 538.5,261C 538.645,260.228 538.978,259.561 539.5,259C 537.579,258.64 535.912,257.806 534.5,256.5C 532.291,257.106 530.124,257.773 528,258.5C 526.245,257.33 525.245,255.663 525,253.5C 524.667,253.833 524.333,254.167 524,254.5C 523.535,253.069 522.701,251.903 521.5,251C 522.38,249.644 522.714,248.144 522.5,246.5C 520.5,246.5 518.5,246.5 516.5,246.5C 516.64,244.876 515.973,243.71 514.5,243C 515.167,242.667 515.833,242.333 516.5,242C 516.384,240.732 516.051,239.398 515.5,238C 516.167,237.667 516.833,237.333 517.5,237C 516.167,236.667 514.833,236.333 513.5,236C 514.167,235.667 514.833,235.333 515.5,235C 514.167,234.333 512.833,233.667 511.5,233C 512.728,227.543 512.728,222.543 511.5,218C 510.213,216.59 509.046,215.09 508,213.5C 507.292,214.381 506.458,215.047 505.5,215.5C 507.488,210.615 507.822,205.615 506.5,200.5C 497.339,196.152 487.672,194.485 477.5,195.5C 476.469,194.751 475.302,194.085 474,193.5C 470.268,193.011 466.434,193.011 462.5,193.5C 460.618,192.907 458.785,192.24 457,191.5C 455.663,193.004 453.996,194.004 452,194.5C 451.646,192.193 450.646,191.859 449,193.5C 445.206,192.77 441.373,192.27 437.5,192C 436,189.833 434.5,187.667 433,185.5C 432.586,185.957 432.086,186.291 431.5,186.5C 428.526,184.994 428.193,183.328 430.5,181.5C 429.669,179.42 428.669,177.42 427.5,175.5C 428.96,172.647 428.293,171.647 425.5,172.5C 428.323,164.364 430.323,156.031 431.5,147.5C 432.117,147.389 432.617,147.056 433,146.5C 433.318,148.061 434.151,149.228 435.5,150C 435.043,150.414 434.709,150.914 434.5,151.5C 437.482,155.181 439.482,159.015 440.5,163C 440.287,165.28 440.287,167.946 440.5,171C 441.552,172.119 442.719,172.619 444,172.5C 444.273,174.101 444.773,175.601 445.5,177C 446.449,177.617 447.282,177.451 448,176.5C 448.667,179.167 449.333,179.167 450,176.5C 450.388,177.428 451.055,178.095 452,178.5C 455.942,176.655 457.608,177.655 457,181.5C 457.725,180.941 458.558,180.608 459.5,180.5C 464.696,180.912 469.696,181.912 474.5,183.5C 491.845,182.958 507.512,188.125 521.5,199C 520.359,199.741 520.359,200.575 521.5,201.5C 523.573,203.203 525.906,204.37 528.5,205C 527.376,205.249 526.376,205.749 525.5,206.5C 527.108,207.242 528.775,207.409 530.5,207C 530.167,207.333 529.833,207.667 529.5,208C 532.544,208.359 532.878,209.026 530.5,210C 532.346,212.092 534.679,213.426 537.5,214C 538.337,215.011 538.67,216.178 538.5,217.5C 541.881,217.54 545.214,217.207 548.5,216.5C 548.833,218.5 549.167,220.5 549.5,222.5C 554.391,222.746 559.224,223.413 564,224.5C 566.556,221.929 569.056,221.929 571.5,224.5C 572.107,224.376 572.44,224.043 572.5,223.5 Z"/></g>
<g><path style="opacity:1" fill="#dbdbdb" d="M 372.5,157.5 C 372.5,168.167 372.5,178.833 372.5,189.5C 373.552,189.351 374.552,189.517 375.5,190C 375.086,201.383 373.753,212.883 371.5,224.5C 375.091,228.617 375.424,233.117 372.5,238C 374.501,240.325 376.834,242.158 379.5,243.5C 375.253,250.084 370.253,256.084 364.5,261.5C 362.807,260.525 361.307,259.192 360,257.5C 356.391,250.914 353.725,244.248 352,237.5C 351.768,233.445 351.268,229.445 350.5,225.5C 351.093,223.618 351.76,221.785 352.5,220C 352.659,211.538 352.659,203.038 352.5,194.5C 357.899,181.361 364.566,169.028 372.5,157.5 Z"/></g>
<g><path style="opacity:1" fill="#c4c4c4" d="M 259.5,164.5 C 262.248,169.666 265.248,174.666 268.5,179.5C 268.5,180.167 268.5,180.833 268.5,181.5C 269.135,193.659 269.468,205.659 269.5,217.5C 267.703,219.131 266.536,221.131 266,223.5C 265.586,223.043 265.086,222.709 264.5,222.5C 263.719,223.729 263.219,225.062 263,226.5C 262.667,226.167 262.333,225.833 262,225.5C 261,227.167 260,228.833 259,230.5C 257.691,228.109 256.691,228.109 256,230.5C 252.715,227.807 251.382,228.474 252,232.5C 249.832,230.545 247.498,229.879 245,230.5C 241.312,227.241 237.146,224.908 232.5,223.5C 227.106,216.103 222.106,208.437 217.5,200.5C 226.373,205.526 234.873,211.193 243,217.5C 243.384,214.857 244.05,212.191 245,209.5C 246.671,211.276 248.504,211.61 250.5,210.5C 252.539,213.192 253.373,212.858 253,209.5C 251.668,208.838 250.502,207.672 249.5,206C 250.825,206.148 251.992,205.982 253,205.5C 256.267,209.745 257.101,209.245 255.5,204C 257.63,201.047 257.963,197.88 256.5,194.5C 257.603,194.002 258.603,193.669 259.5,193.5C 259.2,183.2 259.2,173.533 259.5,164.5 Z"/></g>
<g><path style="opacity:1" fill="#818181" d="M 477.5,195.5 C 463.406,197.976 450.073,202.642 437.5,209.5C 435.561,209.439 433.561,209.439 431.5,209.5C 430.833,208.833 430.167,208.167 429.5,207.5C 426.961,208.115 424.461,208.782 422,209.5C 421.02,207.741 420.353,206.074 420,204.5C 419.667,204.833 419.333,205.167 419,205.5C 418.228,204.151 417.061,203.318 415.5,203C 414.91,201.491 414.244,199.991 413.5,198.5C 412.817,198.863 412.15,199.196 411.5,199.5C 416.441,190.618 421.107,181.618 425.5,172.5C 428.293,171.647 428.96,172.647 427.5,175.5C 428.669,177.42 429.669,179.42 430.5,181.5C 428.193,183.328 428.526,184.994 431.5,186.5C 432.086,186.291 432.586,185.957 433,185.5C 434.5,187.667 436,189.833 437.5,192C 441.373,192.27 445.206,192.77 449,193.5C 450.646,191.859 451.646,192.193 452,194.5C 453.996,194.004 455.663,193.004 457,191.5C 458.785,192.24 460.618,192.907 462.5,193.5C 466.434,193.011 470.268,193.011 474,193.5C 475.302,194.085 476.469,194.751 477.5,195.5 Z"/></g>
<g><path style="opacity:1" fill="#bebebe" d="M 268.5,181.5 C 272.949,188.733 276.615,196.399 279.5,204.5C 279.859,206.766 279.192,208.599 277.5,210C 278.218,212.461 278.885,214.961 279.5,217.5C 277.246,221.947 276.579,226.614 277.5,231.5C 276.726,232.711 275.893,232.711 275,231.5C 273.525,234.642 271.692,237.475 269.5,240C 270.833,241.84 270.666,242.34 269,241.5C 267,242.167 265.667,243.5 265,245.5C 263.108,244.87 261.441,243.87 260,242.5C 257.074,245.625 254.241,245.792 251.5,243C 250.207,242.51 248.873,242.343 247.5,242.5C 242.15,236.478 237.15,230.145 232.5,223.5C 237.146,224.908 241.312,227.241 245,230.5C 247.498,229.879 249.832,230.545 252,232.5C 251.382,228.474 252.715,227.807 256,230.5C 256.691,228.109 257.691,228.109 259,230.5C 260,228.833 261,227.167 262,225.5C 262.333,225.833 262.667,226.167 263,226.5C 263.219,225.062 263.719,223.729 264.5,222.5C 265.086,222.709 265.586,223.043 266,223.5C 266.536,221.131 267.703,219.131 269.5,217.5C 269.468,205.659 269.135,193.659 268.5,181.5 Z"/></g>
<g><path style="opacity:1" fill="#cacaca" d="M 477.5,195.5 C 487.672,194.485 497.339,196.152 506.5,200.5C 507.822,205.615 507.488,210.615 505.5,215.5C 501.771,224.889 496.438,233.222 489.5,240.5C 481.658,247.247 473.325,253.247 464.5,258.5C 463.391,258.557 462.391,258.89 461.5,259.5C 458.15,259.665 454.817,259.498 451.5,259C 452.833,258.333 452.833,257.667 451.5,257C 452.167,256.667 452.833,256.333 453.5,256C 447.573,255.121 441.907,255.955 436.5,258.5C 436.089,257.738 435.923,256.738 436,255.5C 430.984,255.035 425.984,255.701 421,257.5C 420.5,257.333 420,257.167 419.5,257C 421.26,256.035 421.594,254.868 420.5,253.5C 418.568,254.52 416.568,254.687 414.5,254C 415.357,253.311 416.023,252.478 416.5,251.5C 415.418,251.251 414.085,251.085 412.5,251C 413.833,249 415.167,247 416.5,245C 415.692,244.692 415.025,244.192 414.5,243.5C 418.317,240.261 421.651,236.595 424.5,232.5C 424.167,232.167 423.833,231.833 423.5,231.5C 421.922,232.64 420.256,233.14 418.5,233C 422.806,227.55 426.473,221.717 429.5,215.5C 432.167,213.5 434.833,211.5 437.5,209.5C 450.073,202.642 463.406,197.976 477.5,195.5 Z"/></g>
<g><path style="opacity:1" fill="#e1e1e1" d="M 191.5,210.5 C 214.255,224.213 235.588,239.879 255.5,257.5C 254.71,258.794 253.71,259.961 252.5,261C 249.536,261.327 247.036,262.493 245,264.5C 241.667,265.167 238.333,265.833 235,266.5C 233.893,266.415 232.893,266.081 232,265.5C 231.196,266.804 230.029,267.471 228.5,267.5C 225.885,266.731 223.219,266.397 220.5,266.5C 220.5,267.5 220.5,268.5 220.5,269.5C 205.932,267.175 191.265,265.841 176.5,265.5C 169.833,261.833 163.167,258.167 156.5,254.5C 148.839,248.989 141.505,242.989 134.5,236.5C 128.033,229.239 123.367,220.906 120.5,211.5C 120.33,209.152 119.997,206.818 119.5,204.5C 119.39,202.626 120.056,201.126 121.5,200C 125.068,198.382 128.735,197.049 132.5,196C 143.367,194.863 154.033,195.863 164.5,199C 173.753,202.295 182.753,206.128 191.5,210.5 Z"/></g>
<g><path style="opacity:1" fill="#cecece" d="M 352.5,194.5 C 352.659,203.038 352.659,211.538 352.5,220C 351.76,221.785 351.093,223.618 350.5,225.5C 351.268,229.445 351.768,233.445 352,237.5C 353.725,244.248 356.391,250.914 360,257.5C 361.307,259.192 362.807,260.525 364.5,261.5C 361.849,264.48 358.849,267.147 355.5,269.5C 353.629,269.141 352.129,268.141 351,266.5C 344.475,257.622 340.308,247.789 338.5,237C 338.645,235.774 338.978,234.607 339.5,233.5C 338.757,232.818 338.091,232.151 337.5,231.5C 341.539,218.702 346.539,206.368 352.5,194.5 Z"/></g>
<g><path style="opacity:1" fill="#b5b5b5" d="M 279.5,204.5 C 284.24,213.329 287.907,222.662 290.5,232.5C 290.274,235.249 290.607,237.916 291.5,240.5C 290.636,242.197 289.303,243.363 287.5,244C 288.022,244.561 288.355,245.228 288.5,246C 286.622,248.374 284.955,250.874 283.5,253.5C 280.366,255.144 277.533,257.144 275,259.5C 274.667,259.167 274.333,258.833 274,258.5C 272.018,259.094 270.184,260.26 268.5,262C 267.207,262.49 265.873,262.657 264.5,262.5C 258.113,256.446 252.446,249.779 247.5,242.5C 248.873,242.343 250.207,242.51 251.5,243C 254.241,245.792 257.074,245.625 260,242.5C 261.441,243.87 263.108,244.87 265,245.5C 265.667,243.5 267,242.167 269,241.5C 270.666,242.34 270.833,241.84 269.5,240C 271.692,237.475 273.525,234.642 275,231.5C 275.893,232.711 276.726,232.711 277.5,231.5C 276.579,226.614 277.246,221.947 279.5,217.5C 278.885,214.961 278.218,212.461 277.5,210C 279.192,208.599 279.859,206.766 279.5,204.5 Z"/></g>
<g><path style="opacity:1" fill="#7f7f7f" d="M 120.5,211.5 C 123.367,220.906 128.033,229.239 134.5,236.5C 133.188,237.145 132.188,238.145 131.5,239.5C 132.235,242.908 133.568,246.408 135.5,250C 133.566,252.271 133.566,254.271 135.5,256C 133.884,256.615 132.551,257.615 131.5,259C 132.973,259.71 133.64,260.876 133.5,262.5C 132.127,262.343 130.793,262.51 129.5,263C 130.167,263.333 130.833,263.667 131.5,264C 129.212,264.822 126.878,265.489 124.5,266C 123.33,267.755 121.663,268.755 119.5,269C 119.833,269.333 120.167,269.667 120.5,270C 115.938,272.179 111.438,274.346 107,276.5C 106.309,274.109 105.309,274.109 104,276.5C 103.667,276.167 103.333,275.833 103,275.5C 101.465,278.637 99.1316,280.971 96,282.5C 94.984,281.366 94.3173,281.699 94,283.5C 93.2825,282.549 92.4491,282.383 91.5,283C 86.6349,287.203 81.8016,291.37 77,295.5C 76.586,295.043 76.086,294.709 75.5,294.5C 74.1228,296.289 73.1228,298.289 72.5,300.5C 71.675,301.386 70.675,301.719 69.5,301.5C 69.9803,306.017 67.9803,308.35 63.5,308.5C 63.6621,310.527 63.4955,312.527 63,314.5C 62.6667,313.833 62.3333,313.167 62,312.5C 59.6002,314.073 57.1002,315.573 54.5,317C 52.8876,317.72 51.3876,317.554 50,316.5C 48.9039,318.889 48.0706,321.389 47.5,324C 44.8806,323.917 42.214,323.75 39.5,323.5C 39.5,314.5 39.5,305.5 39.5,296.5C 39.7236,288.026 40.7236,279.692 42.5,271.5C 43.4959,271.586 44.3292,271.252 45,270.5C 45.3076,271.308 45.8076,271.975 46.5,272.5C 47.4255,271.359 48.2588,271.359 49,272.5C 49.3333,271.833 49.6667,271.167 50,270.5C 50.6739,271.578 51.6739,272.245 53,272.5C 56.7377,270.444 60.2377,267.944 63.5,265C 67.4205,265.347 71.2539,264.514 75,262.5C 77.0955,263.715 76.9288,264.549 74.5,265C 76.1012,265.273 77.6012,265.773 79,266.5C 79.7751,264.777 81.1084,263.777 83,263.5C 84.8814,264.98 86.048,264.48 86.5,262C 84.7069,257.579 85.5402,256.746 89,259.5C 91.6083,258.725 94.1083,257.725 96.5,256.5C 100.493,258.198 101.16,257.532 98.5,254.5C 100.167,253.833 101.833,253.167 103.5,252.5C 102.926,250.941 102.26,249.441 101.5,248C 103.813,247.338 106.146,246.838 108.5,246.5C 108.286,244.856 108.62,243.356 109.5,242C 106.611,238.305 107.277,236.472 111.5,236.5C 111.291,235.914 110.957,235.414 110.5,235C 112.592,234.047 112.925,232.714 111.5,231C 112.451,226.195 113.451,221.361 114.5,216.5C 115.446,214.058 116.946,212.058 119,210.5C 119.383,211.056 119.883,211.389 120.5,211.5 Z"/></g>
<g><path style="opacity:1" fill="#787878" d="M 286.5,173.5 C 287.038,193.099 289.371,212.432 293.5,231.5C 294.325,237.96 295.659,244.294 297.5,250.5C 298.807,253.725 299.807,257.059 300.5,260.5C 299.5,260.5 298.5,260.5 297.5,260.5C 296.083,250.831 293.749,241.497 290.5,232.5C 287.907,222.662 284.24,213.329 279.5,204.5C 276.615,196.399 272.949,188.733 268.5,181.5C 268.5,180.833 268.5,180.167 268.5,179.5C 269.848,178.814 271.015,177.814 272,176.5C 273.133,178.211 274.633,178.711 276.5,178C 276.167,177.667 275.833,177.333 275.5,177C 277.651,175.912 279.818,174.078 282,171.5C 282.019,168.692 283.019,166.359 285,164.5C 285.181,167.695 285.681,170.695 286.5,173.5 Z"/></g>
<g><path style="opacity:1" fill="#808080" d="M 584.5,270.5 C 586.218,279.062 587.218,287.729 587.5,296.5C 587.5,305.833 587.5,315.167 587.5,324.5C 585.8,324.374 584.3,323.707 583,322.5C 581.174,323.01 581.007,323.844 582.5,325C 581.552,325.483 580.552,325.649 579.5,325.5C 579.649,322.393 579.149,319.393 578,316.5C 577.586,316.957 577.086,317.291 576.5,317.5C 574.224,316.787 571.891,316.287 569.5,316C 569.833,315.667 570.167,315.333 570.5,315C 568.335,313.436 566.668,313.603 565.5,315.5C 565.685,313.514 565.018,311.514 563.5,309.5C 562.914,309.709 562.414,310.043 562,310.5C 558.622,306.121 555.956,301.788 554,297.5C 552.601,296.773 551.101,296.273 549.5,296C 546.388,291.4 542.055,287.234 536.5,283.5C 534.37,283.475 532.37,282.975 530.5,282C 531.167,281.667 531.833,281.333 532.5,281C 530.888,280.28 529.388,280.446 528,281.5C 525.232,280.792 524.399,279.292 525.5,277C 523.336,273.843 521.003,273.343 518.5,275.5C 515.991,274.164 513.324,273.33 510.5,273C 510.833,272.667 511.167,272.333 511.5,272C 504.98,268.574 498.314,265.407 491.5,262.5C 490.141,260.694 490.475,259.194 492.5,258C 488.154,254.183 487.487,250.183 490.5,246C 489.786,244.657 490.12,243.324 491.5,242C 490.956,241.283 490.289,240.783 489.5,240.5C 496.438,233.222 501.771,224.889 505.5,215.5C 506.458,215.047 507.292,214.381 508,213.5C 509.046,215.09 510.213,216.59 511.5,218C 512.728,222.543 512.728,227.543 511.5,233C 512.833,233.667 514.167,234.333 515.5,235C 514.833,235.333 514.167,235.667 513.5,236C 514.833,236.333 516.167,236.667 517.5,237C 516.833,237.333 516.167,237.667 515.5,238C 516.051,239.398 516.384,240.732 516.5,242C 515.833,242.333 515.167,242.667 514.5,243C 515.973,243.71 516.64,244.876 516.5,246.5C 518.5,246.5 520.5,246.5 522.5,246.5C 522.714,248.144 522.38,249.644 521.5,251C 522.701,251.903 523.535,253.069 524,254.5C 524.333,254.167 524.667,253.833 525,253.5C 525.245,255.663 526.245,257.33 528,258.5C 530.124,257.773 532.291,257.106 534.5,256.5C 535.912,257.806 537.579,258.64 539.5,259C 538.978,259.561 538.645,260.228 538.5,261C 540.451,264.742 542.951,265.242 546,262.5C 548.096,263.715 547.929,264.549 545.5,265C 547.101,265.273 548.601,265.773 550,266.5C 550.775,264.777 552.108,263.777 554,263.5C 555.722,263.611 555.888,264.111 554.5,265C 557.047,265.66 559.547,265.493 562,264.5C 566.523,266.352 570.523,269.018 574,272.5C 575.261,272.241 576.261,271.574 577,270.5C 579.309,272.503 581.809,272.503 584.5,270.5 Z"/></g>
<g><path style="opacity:1" fill="#c4c4c4" d="M 429.5,215.5 C 426.473,221.717 422.806,227.55 418.5,233C 420.256,233.14 421.922,232.64 423.5,231.5C 423.833,231.833 424.167,232.167 424.5,232.5C 421.651,236.595 418.317,240.261 414.5,243.5C 415.025,244.192 415.692,244.692 416.5,245C 415.167,247 413.833,249 412.5,251C 414.085,251.085 415.418,251.251 416.5,251.5C 416.023,252.478 415.357,253.311 414.5,254C 416.568,254.687 418.568,254.52 420.5,253.5C 421.594,254.868 421.26,256.035 419.5,257C 420,257.167 420.5,257.333 421,257.5C 425.984,255.701 430.984,255.035 436,255.5C 435.923,256.738 436.089,257.738 436.5,258.5C 441.907,255.955 447.573,255.121 453.5,256C 452.833,256.333 452.167,256.667 451.5,257C 452.833,257.667 452.833,258.333 451.5,259C 454.817,259.498 458.15,259.665 461.5,259.5C 456.316,263.26 450.65,266.26 444.5,268.5C 434.711,269.373 425.211,269.707 416,269.5C 412.963,268.291 409.796,267.457 406.5,267C 403.927,264.264 400.927,262.097 397.5,260.5C 397.977,259.522 398.643,258.689 399.5,258C 398.833,257.667 398.167,257.333 397.5,257C 400.251,253.675 399.918,250.342 396.5,247C 401.467,241.212 405.801,235.046 409.5,228.5C 415.622,223.387 422.289,219.054 429.5,215.5 Z"/></g>
<g><path style="opacity:1" fill="#787878" d="M 215.5,198.5 C 216.167,199.167 216.833,199.833 217.5,200.5C 222.106,208.437 227.106,216.103 232.5,223.5C 237.15,230.145 242.15,236.478 247.5,242.5C 252.446,249.779 258.113,256.446 264.5,262.5C 268.245,266.572 271.912,270.572 275.5,274.5C 275.5,275.167 275.167,275.5 274.5,275.5C 271.728,272.306 268.728,269.306 265.5,266.5C 262.585,263.041 259.252,260.041 255.5,257.5C 235.588,239.879 214.255,224.213 191.5,210.5C 193.725,209.249 195.891,209.582 198,211.5C 198.442,209.321 199.442,208.655 201,209.5C 203.829,207.053 206.996,206.22 210.5,207C 211.634,205.984 211.301,205.317 209.5,205C 211.43,202.742 212.93,200.242 214,197.5C 214.383,198.056 214.883,198.389 215.5,198.5 Z"/></g>
<g><path style="opacity:1" fill="#777777" d="M 437.5,209.5 C 434.833,211.5 432.167,213.5 429.5,215.5C 422.289,219.054 415.622,223.387 409.5,228.5C 401.45,232.857 394.116,238.191 387.5,244.5C 379.551,250.115 372.218,256.448 365.5,263.5C 361.14,267.194 357.14,271.194 353.5,275.5C 352.5,275.167 351.833,274.5 351.5,273.5C 353.167,272.5 354.5,271.167 355.5,269.5C 358.849,267.147 361.849,264.48 364.5,261.5C 370.253,256.084 375.253,250.084 379.5,243.5C 391.327,229.674 401.994,215.007 411.5,199.5C 412.15,199.196 412.817,198.863 413.5,198.5C 414.244,199.991 414.91,201.491 415.5,203C 417.061,203.318 418.228,204.151 419,205.5C 419.333,205.167 419.667,204.833 420,204.5C 420.353,206.074 421.02,207.741 422,209.5C 424.461,208.782 426.961,208.115 429.5,207.5C 430.167,208.167 430.833,208.833 431.5,209.5C 433.561,209.439 435.561,209.439 437.5,209.5 Z"/></g>
<g><path style="opacity:1" fill="#bebebe" d="M 409.5,228.5 C 405.801,235.046 401.467,241.212 396.5,247C 399.918,250.342 400.251,253.675 397.5,257C 398.167,257.333 398.833,257.667 399.5,258C 398.643,258.689 397.977,259.522 397.5,260.5C 400.927,262.097 403.927,264.264 406.5,267C 409.796,267.457 412.963,268.291 416,269.5C 425.211,269.707 434.711,269.373 444.5,268.5C 437.267,272.949 429.601,276.615 421.5,279.5C 418.15,279.665 414.817,279.498 411.5,279C 413.595,278.444 413.762,277.944 412,277.5C 409.258,277.428 406.425,277.761 403.5,278.5C 399.945,276.032 396.111,274.032 392,272.5C 391.228,272.645 390.561,272.978 390,273.5C 388.581,271.664 387.414,269.664 386.5,267.5C 385.271,266.719 383.938,266.219 382.5,266C 383.5,264.333 384.5,262.667 385.5,261C 384.782,259.013 383.782,257.179 382.5,255.5C 383.145,254.354 383.978,253.354 385,252.5C 385.323,249.666 386.157,246.999 387.5,244.5C 394.116,238.191 401.45,232.857 409.5,228.5 Z"/></g>
<g><path style="opacity:1" fill="#e2e2e2" d="M 333.5,231.5 C 332.675,237.96 331.341,244.294 329.5,250.5C 318.836,249.198 308.17,249.198 297.5,250.5C 295.659,244.294 294.325,237.96 293.5,231.5C 306.864,228.86 320.197,228.86 333.5,231.5 Z"/></g>
<g><path style="opacity:1" fill="#c1c1c1" d="M 337.5,231.5 C 338.091,232.151 338.757,232.818 339.5,233.5C 338.978,234.607 338.645,235.774 338.5,237C 340.308,247.789 344.475,257.622 351,266.5C 352.129,268.141 353.629,269.141 355.5,269.5C 354.5,271.167 353.167,272.5 351.5,273.5C 344.082,267.292 335.748,262.958 326.5,260.5C 327.5,260.5 328.5,260.5 329.5,260.5C 330.981,250.406 333.648,240.739 337.5,231.5 Z"/></g>
<g><path style="opacity:1" fill="#a9a9a9" d="M 290.5,232.5 C 293.749,241.497 296.083,250.831 297.5,260.5C 298.5,260.5 299.5,260.5 300.5,260.5C 290.901,262.802 282.568,267.469 275.5,274.5C 271.912,270.572 268.245,266.572 264.5,262.5C 265.873,262.657 267.207,262.49 268.5,262C 270.184,260.26 272.018,259.094 274,258.5C 274.333,258.833 274.667,259.167 275,259.5C 277.533,257.144 280.366,255.144 283.5,253.5C 284.955,250.874 286.622,248.374 288.5,246C 288.355,245.228 288.022,244.561 287.5,244C 289.303,243.363 290.636,242.197 291.5,240.5C 290.607,237.916 290.274,235.249 290.5,232.5 Z"/></g>
<g><path style="opacity:1" fill="#787878" d="M 134.5,236.5 C 141.505,242.989 148.839,248.989 156.5,254.5C 155.624,254.369 154.957,254.702 154.5,255.5C 155.567,257.559 156.9,259.392 158.5,261C 156.779,261.739 155.113,262.573 153.5,263.5C 154.376,264.251 155.376,264.751 156.5,265C 154.766,266.734 152.766,268.068 150.5,269C 149.167,269.667 149.167,270.333 150.5,271C 149.146,272.294 147.812,272.46 146.5,271.5C 145.813,273.555 144.646,275.221 143,276.5C 141.612,275.446 140.112,275.28 138.5,276C 135.882,277.893 133.048,279.393 130,280.5C 129.667,280.167 129.333,279.833 129,279.5C 123.235,281.924 117.401,284.257 111.5,286.5C 105.878,290.123 100.544,294.123 95.5,298.5C 94.5312,301.302 92.6979,303.302 90,304.5C 89.7073,306.925 88.5407,308.758 86.5,310C 87.1667,310.333 87.8333,310.667 88.5,311C 87.0394,312.351 85.706,313.851 84.5,315.5C 85.0875,319.376 85.4209,323.21 85.5,327C 83.1931,329.31 82.8597,331.976 84.5,335C 84.0969,336.473 83.4303,337.806 82.5,339C 84.8841,341.379 86.3841,344.213 87,347.5C 90.2436,348.791 90.0769,349.791 86.5,350.5C 80.8564,347.543 80.1897,348.376 84.5,353C 83.5,353.333 82.5,353.667 81.5,354C 82.8333,354.667 82.8333,355.333 81.5,356C 85.1628,359.086 84.1628,360.419 78.5,360C 88.3501,366.088 87.8501,367.922 77,365.5C 74.2173,367.379 71.7173,367.379 69.5,365.5C 68.263,365.556 67.263,366.056 66.5,367C 68.2279,368.726 70.2279,370.059 72.5,371C 70.5275,373.489 68.6942,373.656 67,371.5C 62.9785,373.688 58.9785,373.355 55,370.5C 51.9293,371.138 48.7626,371.138 45.5,370.5C 39.587,346.126 37.587,321.46 39.5,296.5C 39.5,305.5 39.5,314.5 39.5,323.5C 42.214,323.75 44.8806,323.917 47.5,324C 48.0706,321.389 48.9039,318.889 50,316.5C 51.3876,317.554 52.8876,317.72 54.5,317C 57.1002,315.573 59.6002,314.073 62,312.5C 62.3333,313.167 62.6667,313.833 63,314.5C 63.4955,312.527 63.6621,310.527 63.5,308.5C 67.9803,308.35 69.9803,306.017 69.5,301.5C 70.675,301.719 71.675,301.386 72.5,300.5C 73.1228,298.289 74.1228,296.289 75.5,294.5C 76.086,294.709 76.586,295.043 77,295.5C 81.8016,291.37 86.6349,287.203 91.5,283C 92.4491,282.383 93.2825,282.549 94,283.5C 94.3173,281.699 94.984,281.366 96,282.5C 99.1316,280.971 101.465,278.637 103,275.5C 103.333,275.833 103.667,276.167 104,276.5C 105.309,274.109 106.309,274.109 107,276.5C 111.438,274.346 115.938,272.179 120.5,270C 120.167,269.667 119.833,269.333 119.5,269C 121.663,268.755 123.33,267.755 124.5,266C 126.878,265.489 129.212,264.822 131.5,264C 130.833,263.667 130.167,263.333 129.5,263C 130.793,262.51 132.127,262.343 133.5,262.5C 133.64,260.876 132.973,259.71 131.5,259C 132.551,257.615 133.884,256.615 135.5,256C 133.566,254.271 133.566,252.271 135.5,250C 133.568,246.408 132.235,242.908 131.5,239.5C 132.188,238.145 133.188,237.145 134.5,236.5 Z"/></g>
<g><path style="opacity:1" fill="#787878" d="M 489.5,240.5 C 490.289,240.783 490.956,241.283 491.5,242C 490.12,243.324 489.786,244.657 490.5,246C 487.487,250.183 488.154,254.183 492.5,258C 490.475,259.194 490.141,260.694 491.5,262.5C 498.314,265.407 504.98,268.574 511.5,272C 511.167,272.333 510.833,272.667 510.5,273C 513.324,273.33 515.991,274.164 518.5,275.5C 521.003,273.343 523.336,273.843 525.5,277C 524.399,279.292 525.232,280.792 528,281.5C 529.388,280.446 530.888,280.28 532.5,281C 531.833,281.333 531.167,281.667 530.5,282C 532.37,282.975 534.37,283.475 536.5,283.5C 542.055,287.234 546.388,291.4 549.5,296C 551.101,296.273 552.601,296.773 554,297.5C 555.956,301.788 558.622,306.121 562,310.5C 562.414,310.043 562.914,309.709 563.5,309.5C 565.018,311.514 565.685,313.514 565.5,315.5C 566.668,313.603 568.335,313.436 570.5,315C 570.167,315.333 569.833,315.667 569.5,316C 571.891,316.287 574.224,316.787 576.5,317.5C 577.086,317.291 577.586,316.957 578,316.5C 579.149,319.393 579.649,322.393 579.5,325.5C 580.552,325.649 581.552,325.483 582.5,325C 581.007,323.844 581.174,323.01 583,322.5C 584.3,323.707 585.8,324.374 587.5,324.5C 587.5,315.167 587.5,305.833 587.5,296.5C 589.306,321.987 587.306,347.321 581.5,372.5C 580.178,372.33 579.011,372.663 578,373.5C 577.667,372.833 577.333,372.167 577,371.5C 575.257,373.227 573.424,373.894 571.5,373.5C 568.68,371.374 565.68,370.708 562.5,371.5C 560.803,371.101 559.137,370.601 557.5,370C 558.357,369.311 559.023,368.478 559.5,367.5C 557.314,366.779 555.147,366.113 553,365.5C 549.543,364.858 546.21,365.524 543,367.5C 542.908,363.911 544.741,361.744 548.5,361C 546.559,360.257 544.726,360.424 543,361.5C 542.5,361 542,360.5 541.5,360C 542.833,359 544.167,358 545.5,357C 540.235,355.056 540.235,353.056 545.5,351C 538.796,348.328 538.462,344.661 544.5,340C 543.643,339.311 542.977,338.478 542.5,337.5C 542.106,335.576 542.773,333.743 544.5,332C 543.672,331.085 542.672,330.419 541.5,330C 542.791,327.728 543.457,325.561 543.5,323.5C 542.75,312.33 538.083,303.33 529.5,296.5C 524.161,292.825 518.827,289.158 513.5,285.5C 506.745,282.293 499.912,280.293 493,279.5C 488.5,276.133 483.667,274.466 478.5,274.5C 477.833,273.5 477.167,272.5 476.5,271.5C 473.314,269.743 470.314,267.743 467.5,265.5C 468.167,264.833 468.833,264.167 469.5,263.5C 467.887,262.573 466.221,261.739 464.5,261C 466.986,260.295 466.986,259.462 464.5,258.5C 473.325,253.247 481.658,247.247 489.5,240.5 Z"/></g>
<g><path style="opacity:1" fill="#b6b6b6" d="M 387.5,244.5 C 386.157,246.999 385.323,249.666 385,252.5C 383.978,253.354 383.145,254.354 382.5,255.5C 383.782,257.179 384.782,259.013 385.5,261C 384.5,262.667 383.5,264.333 382.5,266C 383.938,266.219 385.271,266.719 386.5,267.5C 387.414,269.664 388.581,271.664 390,273.5C 390.561,272.978 391.228,272.645 392,272.5C 396.111,274.032 399.945,276.032 403.5,278.5C 406.425,277.761 409.258,277.428 412,277.5C 413.762,277.944 413.595,278.444 411.5,279C 414.817,279.498 418.15,279.665 421.5,279.5C 412.221,283.964 402.554,287.631 392.5,290.5C 390.856,290.286 389.356,290.62 388,291.5C 382.65,289.156 377.817,285.989 373.5,282C 374.167,281.667 374.833,281.333 375.5,281C 372.766,280.427 370.766,278.927 369.5,276.5C 367.598,272.294 366.265,267.961 365.5,263.5C 372.218,256.448 379.551,250.115 387.5,244.5 Z"/></g>
<g><path style="opacity:1" fill="#737373" d="M 156.5,254.5 C 163.167,258.167 169.833,261.833 176.5,265.5C 188.914,272.644 201.914,278.644 215.5,283.5C 229.351,289.838 243.851,294.505 259,297.5C 260.03,297.836 260.53,298.503 260.5,299.5C 260.5,299.833 260.5,300.167 260.5,300.5C 256.121,299.322 251.788,297.988 247.5,296.5C 240.966,294.545 234.299,293.212 227.5,292.5C 193.67,286.134 159.67,284.968 125.5,289C 111.295,292.009 99.7955,299.176 91,310.5C 89,312.5 89,314.5 91,316.5C 94.7356,321.738 99.2356,326.071 104.5,329.5C 103.761,329.369 103.094,329.536 102.5,330C 103.207,332.543 104.54,334.709 106.5,336.5C 106.291,337.086 105.957,337.586 105.5,338C 107.83,340.196 109.163,342.53 109.5,345C 113.721,346.602 117.388,348.935 120.5,352C 118.205,352.984 118.539,353.817 121.5,354.5C 122.386,355.325 122.719,356.325 122.5,357.5C 123.873,357.343 125.207,357.51 126.5,358C 125.122,359.713 123.455,361.047 121.5,362C 123.087,362.862 124.754,363.529 126.5,364C 127.833,364.667 127.833,365.333 126.5,366C 127.167,366.333 127.833,366.667 128.5,367C 125.176,369.993 122.176,373.327 119.5,377C 120.167,377.333 120.833,377.667 121.5,378C 119.597,379.447 117.93,381.114 116.5,383C 110.765,382.106 110.432,382.773 115.5,385C 114.213,386.41 113.046,387.91 112,389.5C 111.667,389.167 111.333,388.833 111,388.5C 109.823,390.176 108.323,391.509 106.5,392.5C 105.557,395.109 103.89,397.109 101.5,398.5C 100.391,400.385 99.5573,402.385 99,404.5C 98.6924,403.692 98.1924,403.025 97.5,402.5C 94.5268,403.81 92.1935,405.81 90.5,408.5C 86.1865,403.922 84.3532,404.922 85,411.5C 83.2494,410.826 81.5827,410.493 80,410.5C 79.6667,411.5 79.3333,412.5 79,413.5C 78.2825,412.549 77.4491,412.383 76.5,413C 76.0037,414.996 75.0037,416.663 73.5,418C 74.1667,418.333 74.8333,418.667 75.5,419C 72.4389,420.31 69.2722,420.143 66,418.5C 63.83,419.72 61.6633,419.72 59.5,418.5C 53.011,403.033 48.3443,387.033 45.5,370.5C 48.7626,371.138 51.9293,371.138 55,370.5C 58.9785,373.355 62.9785,373.688 67,371.5C 68.6942,373.656 70.5275,373.489 72.5,371C 70.2279,370.059 68.2279,368.726 66.5,367C 67.263,366.056 68.263,365.556 69.5,365.5C 71.7173,367.379 74.2173,367.379 77,365.5C 87.8501,367.922 88.3501,366.088 78.5,360C 84.1628,360.419 85.1628,359.086 81.5,356C 82.8333,355.333 82.8333,354.667 81.5,354C 82.5,353.667 83.5,353.333 84.5,353C 80.1897,348.376 80.8564,347.543 86.5,350.5C 90.0769,349.791 90.2436,348.791 87,347.5C 86.3841,344.213 84.8841,341.379 82.5,339C 83.4303,337.806 84.0969,336.473 84.5,335C 82.8597,331.976 83.1931,329.31 85.5,327C 85.4209,323.21 85.0875,319.376 84.5,315.5C 85.706,313.851 87.0394,312.351 88.5,311C 87.8333,310.667 87.1667,310.333 86.5,310C 88.5407,308.758 89.7073,306.925 90,304.5C 92.6979,303.302 94.5312,301.302 95.5,298.5C 100.544,294.123 105.878,290.123 111.5,286.5C 117.401,284.257 123.235,281.924 129,279.5C 129.333,279.833 129.667,280.167 130,280.5C 133.048,279.393 135.882,277.893 138.5,276C 140.112,275.28 141.612,275.446 143,276.5C 144.646,275.221 145.813,273.555 146.5,271.5C 147.812,272.46 149.146,272.294 150.5,271C 149.167,270.333 149.167,269.667 150.5,269C 152.766,268.068 154.766,266.734 156.5,265C 155.376,264.751 154.376,264.251 153.5,263.5C 155.113,262.573 156.779,261.739 158.5,261C 156.9,259.392 155.567,257.559 154.5,255.5C 154.957,254.702 155.624,254.369 156.5,254.5 Z"/></g>
<g><path style="opacity:1" fill="#d4d4d4" d="M 329.5,250.5 C 328.503,253.817 327.503,257.15 326.5,260.5C 317.833,259.167 309.167,259.167 300.5,260.5C 299.807,257.059 298.807,253.725 297.5,250.5C 308.17,249.198 318.836,249.198 329.5,250.5 Z"/></g>
<g><path style="opacity:1" fill="#d5d5d5" d="M 255.5,257.5 C 259.252,260.041 262.585,263.041 265.5,266.5C 258.931,274.862 250.264,279.695 239.5,281C 231.428,282.398 223.428,283.231 215.5,283.5C 201.914,278.644 188.914,272.644 176.5,265.5C 191.265,265.841 205.932,267.175 220.5,269.5C 220.5,268.5 220.5,267.5 220.5,266.5C 223.219,266.397 225.885,266.731 228.5,267.5C 230.029,267.471 231.196,266.804 232,265.5C 232.893,266.081 233.893,266.415 235,266.5C 238.333,265.833 241.667,265.167 245,264.5C 247.036,262.493 249.536,261.327 252.5,261C 253.71,259.961 254.71,258.794 255.5,257.5 Z"/></g>
<g><path style="opacity:1" fill="#737373" d="M 464.5,258.5 C 466.986,259.462 466.986,260.295 464.5,261C 466.221,261.739 467.887,262.573 469.5,263.5C 468.833,264.167 468.167,264.833 467.5,265.5C 470.314,267.743 473.314,269.743 476.5,271.5C 477.167,272.5 477.833,273.5 478.5,274.5C 483.667,274.466 488.5,276.133 493,279.5C 499.912,280.293 506.745,282.293 513.5,285.5C 518.827,289.158 524.161,292.825 529.5,296.5C 538.083,303.33 542.75,312.33 543.5,323.5C 543.457,325.561 542.791,327.728 541.5,330C 542.672,330.419 543.672,331.085 544.5,332C 542.773,333.743 542.106,335.576 542.5,337.5C 542.977,338.478 543.643,339.311 544.5,340C 538.462,344.661 538.796,348.328 545.5,351C 540.235,353.056 540.235,355.056 545.5,357C 544.167,358 542.833,359 541.5,360C 542,360.5 542.5,361 543,361.5C 544.726,360.424 546.559,360.257 548.5,361C 544.741,361.744 542.908,363.911 543,367.5C 546.21,365.524 549.543,364.858 553,365.5C 555.147,366.113 557.314,366.779 559.5,367.5C 559.023,368.478 558.357,369.311 557.5,370C 559.137,370.601 560.803,371.101 562.5,371.5C 565.68,370.708 568.68,371.374 571.5,373.5C 573.424,373.894 575.257,373.227 577,371.5C 577.333,372.167 577.667,372.833 578,373.5C 579.011,372.663 580.178,372.33 581.5,372.5C 578.61,387.832 573.943,402.499 567.5,416.5C 565.821,416.892 564.154,417.392 562.5,418C 563.5,418.333 564.5,418.667 565.5,419C 560.154,419.432 554.82,419.266 549.5,418.5C 549.5,416.5 549.5,414.5 549.5,412.5C 546.161,412.11 542.827,411.61 539.5,411C 540.183,408.017 538.849,406.017 535.5,405C 532.633,404.971 530.133,404.138 528,402.5C 527.667,403.167 527.333,403.833 527,404.5C 525.477,402.431 524.643,400.097 524.5,397.5C 523.178,397.67 522.011,397.337 521,396.5C 519.328,393.163 517.661,389.83 516,386.5C 513.266,387.362 513.099,388.195 515.5,389C 514.365,389.749 513.365,389.583 512.5,388.5C 511.299,384.799 509.132,381.799 506,379.5C 505.383,378.551 505.549,377.718 506.5,377C 505.5,376.667 504.5,376.333 503.5,376C 503.833,375.667 504.167,375.333 504.5,375C 502.344,373.01 500.344,370.843 498.5,368.5C 499.833,367.5 499.833,366.5 498.5,365.5C 499.912,364.194 501.579,363.36 503.5,363C 502.167,361.667 500.833,360.333 499.5,359C 501.427,356.142 504.094,354.475 507.5,354C 504.456,353.641 504.122,352.974 506.5,352C 506.167,351.667 505.833,351.333 505.5,351C 510.091,349.905 514.091,347.738 517.5,344.5C 517.291,343.914 516.957,343.414 516.5,343C 518.5,341.333 520.5,339.667 522.5,338C 522.043,337.586 521.709,337.086 521.5,336.5C 522.935,335.071 523.935,333.405 524.5,331.5C 524.457,330.584 524.124,329.917 523.5,329.5C 528.469,325.363 532.969,320.696 537,315.5C 537.635,313.365 537.301,311.365 536,309.5C 523.788,296.311 508.621,288.811 490.5,287C 464.076,285.813 437.743,286.813 411.5,290C 402.691,291.395 394.024,293.228 385.5,295.5C 379.319,296.545 373.319,298.212 367.5,300.5C 366.596,299.791 366.263,298.791 366.5,297.5C 375.515,296.081 384.182,293.748 392.5,290.5C 402.554,287.631 412.221,283.964 421.5,279.5C 429.601,276.615 437.267,272.949 444.5,268.5C 450.65,266.26 456.316,263.26 461.5,259.5C 462.391,258.89 463.391,258.557 464.5,258.5 Z"/></g>
<g><path style="opacity:1" fill="#fefefe" d="M 326.5,260.5 C 335.748,262.958 344.082,267.292 351.5,273.5C 351.833,274.5 352.5,275.167 353.5,275.5C 359.359,281.876 363.692,289.21 366.5,297.5C 366.263,298.791 366.596,299.791 367.5,300.5C 368.799,309.16 368.799,317.826 367.5,326.5C 364.67,335.823 360.003,344.156 353.5,351.5C 353.5,352.167 353.167,352.5 352.5,352.5C 346.149,358.677 338.816,363.344 330.5,366.5C 328.901,366.232 327.568,366.566 326.5,367.5C 317.815,368.669 309.149,368.669 300.5,367.5C 299.791,366.596 298.791,366.263 297.5,366.5C 289.21,363.692 281.876,359.359 275.5,353.5C 275.167,352.5 274.5,351.833 273.5,351.5C 267.292,344.082 262.958,335.748 260.5,326.5C 259.167,317.833 259.167,309.167 260.5,300.5C 260.5,300.167 260.5,299.833 260.5,299.5C 263.087,290.331 267.754,282.331 274.5,275.5C 275.167,275.5 275.5,275.167 275.5,274.5C 282.568,267.469 290.901,262.802 300.5,260.5C 309.167,259.167 317.833,259.167 326.5,260.5 Z"/></g>
<g><path style="opacity:1" fill="#a9a9a9" d="M 365.5,263.5 C 366.265,267.961 367.598,272.294 369.5,276.5C 370.766,278.927 372.766,280.427 375.5,281C 374.833,281.333 374.167,281.667 373.5,282C 377.817,285.989 382.65,289.156 388,291.5C 389.356,290.62 390.856,290.286 392.5,290.5C 384.182,293.748 375.515,296.081 366.5,297.5C 363.692,289.21 359.359,281.876 353.5,275.5C 357.14,271.194 361.14,267.194 365.5,263.5 Z"/></g>
<g><path style="opacity:1" fill="#c4c4c4" d="M 265.5,266.5 C 268.728,269.306 271.728,272.306 274.5,275.5C 267.754,282.331 263.087,290.331 260.5,299.5C 260.53,298.503 260.03,297.836 259,297.5C 243.851,294.505 229.351,289.838 215.5,283.5C 223.428,283.231 231.428,282.398 239.5,281C 250.264,279.695 258.931,274.862 265.5,266.5 Z"/></g>
<g><path style="opacity:1" fill="#eaeaea" d="M 227.5,292.5 C 226.32,299.953 225.32,307.453 224.5,315C 225.424,321.48 226.09,327.98 226.5,334.5C 197.098,339.873 167.432,341.873 137.5,340.5C 126.047,338.545 115.047,334.878 104.5,329.5C 99.2356,326.071 94.7356,321.738 91,316.5C 89,314.5 89,312.5 91,310.5C 99.7955,299.176 111.295,292.009 125.5,289C 159.67,284.968 193.67,286.134 227.5,292.5 Z"/></g>
<g><path style="opacity:1" fill="#e9e9e9" d="M 523.5,329.5 C 513.157,334.939 502.157,338.439 490.5,340C 455.77,342.507 421.437,340.007 387.5,332.5C 387.119,326.757 387.452,320.924 388.5,315C 387.991,308.397 386.991,301.897 385.5,295.5C 394.024,293.228 402.691,291.395 411.5,290C 437.743,286.813 464.076,285.813 490.5,287C 508.621,288.811 523.788,296.311 536,309.5C 537.301,311.365 537.635,313.365 537,315.5C 532.969,320.696 528.469,325.363 523.5,329.5 Z"/></g>
<g><path style="opacity:1" fill="#e1e1e1" d="M 227.5,292.5 C 234.299,293.212 240.966,294.545 247.5,296.5C 247.953,297.458 248.619,298.292 249.5,299C 246.035,308.701 245.702,318.535 248.5,328.5C 248.137,329.183 247.804,329.85 247.5,330.5C 240.658,332.585 233.658,333.918 226.5,334.5C 226.09,327.98 225.424,321.48 224.5,315C 225.32,307.453 226.32,299.953 227.5,292.5 Z"/></g>
<g><path style="opacity:1" fill="#d7d7d7" d="M 385.5,295.5 C 386.991,301.897 387.991,308.397 388.5,315C 387.452,320.924 387.119,326.757 387.5,332.5C 380.725,330.807 374.059,328.807 367.5,326.5C 368.799,317.826 368.799,309.16 367.5,300.5C 373.319,298.212 379.319,296.545 385.5,295.5 Z"/></g>
<g><path style="opacity:1" fill="#d3d3d3" d="M 247.5,296.5 C 251.788,297.988 256.121,299.322 260.5,300.5C 259.167,309.167 259.167,317.833 260.5,326.5C 256.121,327.678 251.788,329.012 247.5,330.5C 247.804,329.85 248.137,329.183 248.5,328.5C 245.702,318.535 246.035,308.701 249.5,299C 248.619,298.292 247.953,297.458 247.5,296.5 Z"/></g>
<g><path style="opacity:1" fill="#6d6d6d" d="M 104.5,329.5 C 115.047,334.878 126.047,338.545 137.5,340.5C 135.712,340.215 134.045,340.548 132.5,341.5C 139.167,344.669 146.167,347.169 153.5,349C 152.833,349.333 152.167,349.667 151.5,350C 154.167,351.333 156.833,352.667 159.5,354C 156.92,355.897 157.253,357.897 160.5,360C 156.544,362.288 153.211,365.288 150.5,369C 151.167,369.333 151.833,369.667 152.5,370C 150.489,373.177 147.822,375.677 144.5,377.5C 143.833,378.5 143.167,379.5 142.5,380.5C 142.624,381.107 142.957,381.44 143.5,381.5C 136.416,388.082 130.25,395.415 125,403.5C 120.97,410.286 119.137,417.62 119.5,425.5C 118.837,423.958 118.17,422.291 117.5,420.5C 116.391,419.41 115.391,419.41 114.5,420.5C 117.131,422.005 116.797,422.671 113.5,422.5C 113.492,425.897 114.159,429.064 115.5,432C 111.154,433.258 110.821,435.591 114.5,439C 113.051,440.117 111.384,440.784 109.5,441C 111.49,443.988 113.823,446.655 116.5,449C 115.667,449.167 114.833,449.333 114,449.5C 112.113,449.031 110.613,448.031 109.5,446.5C 107.364,447.168 105.03,447.335 102.5,447C 105.42,448.785 107.42,450.952 108.5,453.5C 106.674,455.781 104.674,455.781 102.5,453.5C 102.167,454 101.833,454.5 101.5,455C 103.112,457.616 105.112,459.95 107.5,462C 107,462.5 106.5,463 106,463.5C 101.845,462.773 97.8447,462.773 94,463.5C 91.8723,460.826 90.039,460.993 88.5,464C 88.9504,465.285 89.6171,466.452 90.5,467.5C 89.6063,467.517 88.6063,467.851 87.5,468.5C 76.1409,453.13 66.8076,436.463 59.5,418.5C 61.6633,419.72 63.83,419.72 66,418.5C 69.2722,420.143 72.4389,420.31 75.5,419C 74.8333,418.667 74.1667,418.333 73.5,418C 75.0037,416.663 76.0037,414.996 76.5,413C 77.4491,412.383 78.2825,412.549 79,413.5C 79.3333,412.5 79.6667,411.5 80,410.5C 81.5827,410.493 83.2494,410.826 85,411.5C 84.3532,404.922 86.1865,403.922 90.5,408.5C 92.1935,405.81 94.5268,403.81 97.5,402.5C 98.1924,403.025 98.6924,403.692 99,404.5C 99.5573,402.385 100.391,400.385 101.5,398.5C 103.89,397.109 105.557,395.109 106.5,392.5C 108.323,391.509 109.823,390.176 111,388.5C 111.333,388.833 111.667,389.167 112,389.5C 113.046,387.91 114.213,386.41 115.5,385C 110.432,382.773 110.765,382.106 116.5,383C 117.93,381.114 119.597,379.447 121.5,378C 120.833,377.667 120.167,377.333 119.5,377C 122.176,373.327 125.176,369.993 128.5,367C 127.833,366.667 127.167,366.333 126.5,366C 127.833,365.333 127.833,364.667 126.5,364C 124.754,363.529 123.087,362.862 121.5,362C 123.455,361.047 125.122,359.713 126.5,358C 125.207,357.51 123.873,357.343 122.5,357.5C 122.719,356.325 122.386,355.325 121.5,354.5C 118.539,353.817 118.205,352.984 120.5,352C 117.388,348.935 113.721,346.602 109.5,345C 109.163,342.53 107.83,340.196 105.5,338C 105.957,337.586 106.291,337.086 106.5,336.5C 104.54,334.709 103.207,332.543 102.5,330C 103.094,329.536 103.761,329.369 104.5,329.5 Z"/></g>
<g><path style="opacity:1" fill="#6c6c6c" d="M 367.5,326.5 C 374.059,328.807 380.725,330.807 387.5,332.5C 421.437,340.007 455.77,342.507 490.5,340C 502.157,338.439 513.157,334.939 523.5,329.5C 524.124,329.917 524.457,330.584 524.5,331.5C 523.935,333.405 522.935,335.071 521.5,336.5C 521.709,337.086 522.043,337.586 522.5,338C 520.5,339.667 518.5,341.333 516.5,343C 516.957,343.414 517.291,343.914 517.5,344.5C 514.091,347.738 510.091,349.905 505.5,351C 505.833,351.333 506.167,351.667 506.5,352C 504.122,352.974 504.456,353.641 507.5,354C 504.094,354.475 501.427,356.142 499.5,359C 500.833,360.333 502.167,361.667 503.5,363C 501.579,363.36 499.912,364.194 498.5,365.5C 499.833,366.5 499.833,367.5 498.5,368.5C 500.344,370.843 502.344,373.01 504.5,375C 504.167,375.333 503.833,375.667 503.5,376C 504.5,376.333 505.5,376.667 506.5,377C 505.549,377.718 505.383,378.551 506,379.5C 509.132,381.799 511.299,384.799 512.5,388.5C 513.365,389.583 514.365,389.749 515.5,389C 513.099,388.195 513.266,387.362 516,386.5C 517.661,389.83 519.328,393.163 521,396.5C 522.011,397.337 523.178,397.67 524.5,397.5C 524.643,400.097 525.477,402.431 527,404.5C 527.333,403.833 527.667,403.167 528,402.5C 530.133,404.138 532.633,404.971 535.5,405C 538.849,406.017 540.183,408.017 539.5,411C 542.827,411.61 546.161,412.11 549.5,412.5C 549.5,414.5 549.5,416.5 549.5,418.5C 554.82,419.266 560.154,419.432 565.5,419C 564.5,418.667 563.5,418.333 562.5,418C 564.154,417.392 565.821,416.892 567.5,416.5C 560.741,435.36 551.407,452.694 539.5,468.5C 538.293,467.811 536.959,467.645 535.5,468C 536.861,466.416 537.528,464.582 537.5,462.5C 535.409,462.318 533.409,462.652 531.5,463.5C 529.245,461.312 527.078,461.646 525,464.5C 524.167,463.5 523.333,462.5 522.5,461.5C 521.325,462.855 520.325,462.688 519.5,461C 521.455,460.047 523.122,458.713 524.5,457C 520.815,456.086 521.148,455.419 525.5,455C 522.931,453.574 520.764,453.741 519,455.5C 518.5,455 518,454.5 517.5,454C 523.764,448.242 523.764,446.742 517.5,449.5C 516.614,448.675 516.281,447.675 516.5,446.5C 515.448,446.649 514.448,446.483 513.5,446C 515.599,444.318 516.932,442.652 517.5,441C 515.676,438.919 514.009,439.085 512.5,441.5C 512.744,438.492 514.077,435.659 516.5,433C 514.5,433 512.5,433 510.5,433C 512.482,430.919 513.816,428.419 514.5,425.5C 513.91,424.201 512.91,423.368 511.5,423C 512.167,422.667 512.833,422.333 513.5,422C 510.237,418.691 508.57,419.524 508.5,424.5C 507.575,412.318 503.075,401.652 495,392.5C 485.292,382.078 474.125,373.745 461.5,367.5C 454.981,363.072 447.981,359.406 440.5,356.5C 428.153,349.497 415.153,343.83 401.5,339.5C 391.316,335.115 380.649,331.949 369.5,330C 368.027,329.29 367.36,328.124 367.5,326.5 Z"/></g>
<g><path style="opacity:1" fill="#a8a8a8" d="M 260.5,326.5 C 262.958,335.748 267.292,344.082 273.5,351.5C 269.5,356.833 264.833,361.5 259.5,365.5C 259.034,363.799 259.034,362.299 259.5,361C 256.474,356.59 253.474,352.257 250.5,348C 250.833,347.667 251.167,347.333 251.5,347C 249.376,345.878 247.543,344.378 246,342.5C 243.866,343.305 242.033,342.638 240.5,340.5C 236.524,339.614 232.524,338.948 228.5,338.5C 238.723,334.275 249.39,331.275 260.5,329.5C 260.5,328.5 260.5,327.5 260.5,326.5 Z"/></g>
<g><path style="opacity:1" fill="#c1c1c1" d="M 367.5,326.5 C 367.36,328.124 368.027,329.29 369.5,330C 380.649,331.949 391.316,335.115 401.5,339.5C 398.428,341.698 395.095,342.032 391.5,340.5C 386.208,340.985 381.374,342.652 377,345.5C 376.667,345.167 376.333,344.833 376,344.5C 370.91,347.294 366.077,350.46 361.5,354C 360.177,354.816 359.511,355.983 359.5,357.5C 357.5,355.5 355.5,353.5 353.5,351.5C 360.003,344.156 364.67,335.823 367.5,326.5 Z"/></g>
<g><path style="opacity:1" fill="#696969" d="M 260.5,326.5 C 260.5,327.5 260.5,328.5 260.5,329.5C 249.39,331.275 238.723,334.275 228.5,338.5C 215.984,342.43 203.984,347.43 192.5,353.5C 185.019,356.406 178.019,360.072 171.5,364.5C 163.7,367.653 156.7,371.986 150.5,377.5C 148.167,378.833 145.833,380.167 143.5,381.5C 142.957,381.44 142.624,381.107 142.5,380.5C 143.167,379.5 143.833,378.5 144.5,377.5C 147.822,375.677 150.489,373.177 152.5,370C 151.833,369.667 151.167,369.333 150.5,369C 153.211,365.288 156.544,362.288 160.5,360C 157.253,357.897 156.92,355.897 159.5,354C 156.833,352.667 154.167,351.333 151.5,350C 152.167,349.667 152.833,349.333 153.5,349C 146.167,347.169 139.167,344.669 132.5,341.5C 134.045,340.548 135.712,340.215 137.5,340.5C 167.432,341.873 197.098,339.873 226.5,334.5C 233.658,333.918 240.658,332.585 247.5,330.5C 251.788,329.012 256.121,327.678 260.5,326.5 Z"/></g>
<g><path style="opacity:1" fill="#b5b5b5" d="M 228.5,338.5 C 232.524,338.948 236.524,339.614 240.5,340.5C 242.033,342.638 243.866,343.305 246,342.5C 247.543,344.378 249.376,345.878 251.5,347C 251.167,347.333 250.833,347.667 250.5,348C 253.474,352.257 256.474,356.59 259.5,361C 259.034,362.299 259.034,363.799 259.5,365.5C 251.738,373.93 243.072,381.264 233.5,387.5C 234.672,383.497 236.338,379.663 238.5,376C 237.01,372.786 237.344,369.786 239.5,367C 237.312,364.29 235.645,361.29 234.5,358C 232.603,356.89 230.77,356.724 229,357.5C 226.442,354.452 223.276,353.619 219.5,355C 220.96,354.189 221.293,353.355 220.5,352.5C 211.379,353.22 202.046,353.553 192.5,353.5C 203.984,347.43 215.984,342.43 228.5,338.5 Z"/></g>
<g><path style="opacity:1" fill="#cecece" d="M 401.5,339.5 C 415.153,343.83 428.153,349.497 440.5,356.5C 431.265,356.13 422.099,355.13 413,353.5C 405.776,353.797 398.776,353.797 392,353.5C 391.072,355.335 389.906,355.668 388.5,354.5C 382.842,357.137 376.842,359.97 370.5,363C 369.833,363.667 369.167,364.333 368.5,365C 369.252,365.671 369.586,366.504 369.5,367.5C 365.833,364.5 362.5,361.167 359.5,357.5C 359.511,355.983 360.177,354.816 361.5,354C 366.077,350.46 370.91,347.294 376,344.5C 376.333,344.833 376.667,345.167 377,345.5C 381.374,342.652 386.208,340.985 391.5,340.5C 395.095,342.032 398.428,341.698 401.5,339.5 Z"/></g>
<g><path style="opacity:1" fill="#bdbdbd" d="M 233.5,387.5 C 225.188,394.322 216.521,400.656 207.5,406.5C 207.167,406.5 206.833,406.5 206.5,406.5C 206.351,405.448 206.517,404.448 207,403.5C 209.445,402.023 211.612,400.19 213.5,398C 212.72,396.927 212.887,395.76 214,394.5C 214.667,395.833 215.333,395.833 216,394.5C 218.112,390.722 220.612,387.222 223.5,384C 222.833,383.667 222.167,383.333 221.5,383C 223.405,381.185 225.072,379.185 226.5,377C 225.181,373.842 223.515,370.342 221.5,366.5C 220.449,365.115 219.116,364.115 217.5,363.5C 202.26,363.768 186.927,364.101 171.5,364.5C 178.019,360.072 185.019,356.406 192.5,353.5C 202.046,353.553 211.379,353.22 220.5,352.5C 221.293,353.355 220.96,354.189 219.5,355C 223.276,353.619 226.442,354.452 229,357.5C 230.77,356.724 232.603,356.89 234.5,358C 235.645,361.29 237.312,364.29 239.5,367C 237.344,369.786 237.01,372.786 238.5,376C 236.338,379.663 234.672,383.497 233.5,387.5 Z"/></g>
<g><path style="opacity:1" fill="#d7d7d7" d="M 440.5,356.5 C 447.981,359.406 454.981,363.072 461.5,367.5C 444.138,367.593 426.805,366.259 409.5,363.5C 405.469,364.674 401.469,364.674 397.5,363.5C 395.873,365.603 393.873,365.936 391.5,364.5C 387.541,364.484 384.207,365.817 381.5,368.5C 377.719,367.609 376.052,369.276 376.5,373.5C 373.94,371.727 371.607,369.727 369.5,367.5C 369.586,366.504 369.252,365.671 368.5,365C 369.167,364.333 369.833,363.667 370.5,363C 376.842,359.97 382.842,357.137 388.5,354.5C 389.906,355.668 391.072,355.335 392,353.5C 398.776,353.797 405.776,353.797 413,353.5C 422.099,355.13 431.265,356.13 440.5,356.5 Z"/></g>
<g><path style="opacity:1" fill="#c4c4c4" d="M 206.5,406.5 C 196.273,413.783 185.273,419.783 173.5,424.5C 179.8,411.234 187.133,398.567 195.5,386.5C 190.521,385.775 185.521,385.608 180.5,386C 182.174,384.494 183.174,382.661 183.5,380.5C 179.152,380.909 174.819,381.076 170.5,381C 172.332,380.252 173.999,379.252 175.5,378C 167.173,377.5 158.84,377.334 150.5,377.5C 156.7,371.986 163.7,367.653 171.5,364.5C 186.927,364.101 202.26,363.768 217.5,363.5C 219.116,364.115 220.449,365.115 221.5,366.5C 223.515,370.342 225.181,373.842 226.5,377C 225.072,379.185 223.405,381.185 221.5,383C 222.167,383.333 222.833,383.667 223.5,384C 220.612,387.222 218.112,390.722 216,394.5C 215.333,395.833 214.667,395.833 214,394.5C 212.887,395.76 212.72,396.927 213.5,398C 211.612,400.19 209.445,402.023 207,403.5C 206.517,404.448 206.351,405.448 206.5,406.5 Z"/></g>
<g><path style="opacity:1" fill="#606060" d="M 273.5,351.5 C 274.5,351.833 275.167,352.5 275.5,353.5C 273.194,355.139 271.194,357.139 269.5,359.5C 266.5,361.833 263.833,364.5 261.5,367.5C 258.45,369.549 256.117,372.216 254.5,375.5C 237.928,393.919 223.428,413.919 211,435.5C 201.909,450.272 196.742,466.272 195.5,483.5C 195.133,491.636 196.799,499.303 200.5,506.5C 206.306,507.853 211.973,507.353 217.5,505C 235.74,495.69 249.406,481.856 258.5,463.5C 260.252,460.328 262.252,457.328 264.5,454.5C 264.369,455.239 264.536,455.906 265,456.5C 266.972,455.695 268.472,454.361 269.5,452.5C 270.452,453.533 270.452,454.7 269.5,456C 270.852,457.964 271.686,460.131 272,462.5C 272.419,461.328 273.085,460.328 274,459.5C 274.273,461.101 274.773,462.601 275.5,464C 274.62,465.356 274.286,466.856 274.5,468.5C 278.311,468.596 278.311,469.262 274.5,470.5C 276.623,473.317 276.956,476.317 275.5,479.5C 276.189,481.353 277.522,482.519 279.5,483C 278.128,485.533 277.128,488.2 276.5,491C 277.649,496.659 279.649,502.326 282.5,508C 281.521,509.779 281.854,511.445 283.5,513C 282.09,513.368 281.09,514.201 280.5,515.5C 281.5,516.833 282.5,518.167 283.5,519.5C 284.609,518.41 285.609,518.41 286.5,519.5C 285.833,520.5 285.167,521.5 284.5,522.5C 286.354,526.221 288.687,529.554 291.5,532.5C 290.674,533.451 290.508,534.451 291,535.5C 295,538.916 299.5,541.416 304.5,543C 302.888,543.72 301.388,543.554 300,542.5C 298.491,543.09 296.991,543.756 295.5,544.5C 301.445,547.532 307.779,549.199 314.5,549.5C 312.269,549.887 309.936,550.053 307.5,550C 309.278,550.704 311.112,551.204 313,551.5C 318.402,549.209 324.568,547.042 331.5,545C 329.899,544.727 328.399,544.227 327,543.5C 325.582,545.363 323.749,545.863 321.5,545C 325.864,542.616 330.53,539.616 335.5,536C 334.5,535.667 333.5,535.333 332.5,535C 334.642,533.196 336.808,531.363 339,529.5C 340.268,525.369 342.268,521.702 345,518.5C 344.697,514.885 344.53,511.385 344.5,508C 346.906,502.903 348.572,497.57 349.5,492C 348.965,490.128 348.965,488.462 349.5,487C 348.643,486.311 347.977,485.478 347.5,484.5C 351.387,482.672 352.387,479.839 350.5,476C 350.703,473.594 351.703,471.594 353.5,470C 352.378,466.591 352.211,463.091 353,459.5C 354.779,462.276 355.779,461.943 356,458.5C 357.131,459.604 357.965,459.271 358.5,457.5C 357.975,456.808 357.308,456.308 356.5,456C 356.833,455.667 357.167,455.333 357.5,455C 354.814,449.393 355.481,449.06 359.5,454C 359.167,454.333 358.833,454.667 358.5,455C 359.872,455.402 361.205,455.902 362.5,456.5C 363.298,456.043 363.631,455.376 363.5,454.5C 364.167,455.167 364.833,455.833 365.5,456.5C 373.968,475.138 386.635,490.305 403.5,502C 410.556,506.577 418.223,508.243 426.5,507C 432.291,495.748 433.791,483.915 431,471.5C 426.843,455.192 420.009,440.192 410.5,426.5C 404.606,416.278 397.94,406.611 390.5,397.5C 384.361,387.574 377.028,378.574 368.5,370.5C 363.458,364.132 358.125,358.132 352.5,352.5C 353.167,352.5 353.5,352.167 353.5,351.5C 355.5,353.5 357.5,355.5 359.5,357.5C 362.5,361.167 365.833,364.5 369.5,367.5C 371.607,369.727 373.94,371.727 376.5,373.5C 394.772,388.969 414.105,402.969 434.5,415.5C 434.631,416.239 434.464,416.906 434,417.5C 430.739,416.87 427.572,415.87 424.5,414.5C 423.396,415.631 423.729,416.465 425.5,417C 425.5,418.333 425.5,419.667 425.5,421C 423.109,421.691 423.109,422.691 425.5,424C 423.999,425.252 422.332,426.252 420.5,427C 423.841,429.472 423.841,431.472 420.5,433C 422.167,435 423.833,437 425.5,439C 424.512,441.42 424.845,443.753 426.5,446C 427.448,446.483 428.448,446.649 429.5,446.5C 429.452,449.292 430.785,451.125 433.5,452C 432.5,452.333 431.5,452.667 430.5,453C 431.305,454.972 432.639,456.472 434.5,457.5C 435.833,458.833 435.833,460.167 434.5,461.5C 437.37,464.283 439.37,467.617 440.5,471.5C 438.083,473.494 438.083,475.327 440.5,477C 440.167,478 439.833,479 439.5,480C 440.908,484.145 442.575,488.145 444.5,492C 443.833,492.333 443.167,492.667 442.5,493C 443.672,493.419 444.672,494.085 445.5,495C 443.98,497.916 444.647,500.249 447.5,502C 446.264,503.856 446.264,505.689 447.5,507.5C 446.975,508.192 446.308,508.692 445.5,509C 446.833,510 446.833,511 445.5,512C 449.232,512.366 452.232,514.032 454.5,517C 453.376,517.249 452.376,517.749 451.5,518.5C 454.173,519.432 456.839,519.598 459.5,519C 457.409,521.944 455.742,524.61 454.5,527C 457.11,527.224 459.61,526.724 462,525.5C 463,526.167 464,526.833 465,527.5C 466.688,525.152 468.522,524.985 470.5,527C 469.379,528.985 469.213,531.152 470,533.5C 471.784,530.997 473.451,530.997 475,533.5C 475.77,532.402 476.603,532.402 477.5,533.5C 417.942,576.946 351.275,594.446 277.5,586C 229.079,579.377 185.745,561.211 147.5,531.5C 150.271,531.579 152.937,531.079 155.5,530C 154.332,528.129 154.832,526.629 157,525.5C 161.394,526.842 165.894,527.342 170.5,527C 168.17,525.638 167.17,523.472 167.5,520.5C 169.869,520.851 172.203,521.018 174.5,521C 173.449,519.615 172.116,518.615 170.5,518C 172.301,517.683 172.634,517.016 171.5,516C 173.061,515.682 174.228,514.849 175,513.5C 176.333,514.167 177.667,514.833 179,515.5C 179.167,515.167 179.333,514.833 179.5,514.5C 178.088,513.194 176.421,512.36 174.5,512C 176.886,511.716 177.552,510.716 176.5,509C 180.5,508.333 180.5,507.667 176.5,507C 177.308,506.692 177.975,506.192 178.5,505.5C 177.36,503.922 176.86,502.256 177,500.5C 178.388,501.554 179.888,501.72 181.5,501C 180.833,500.667 180.167,500.333 179.5,500C 180.649,498.396 180.649,496.73 179.5,495C 180.112,492.942 181.112,491.109 182.5,489.5C 181.998,488.284 181.665,487.117 181.5,486C 182.5,485 183.5,484 184.5,483C 184.953,477.893 184.953,472.893 184.5,468C 186.1,466.392 187.433,464.559 188.5,462.5C 189.192,463.025 189.692,463.692 190,464.5C 191.523,462.17 192.023,459.836 191.5,457.5C 192.248,455.668 193.248,454.001 194.5,452.5C 194.167,451.833 193.833,451.167 193.5,450.5C 196.673,448.439 199.339,445.272 201.5,441C 200.833,440.667 200.167,440.333 199.5,440C 201.942,438.319 203.275,436.319 203.5,434C 202.833,433.667 202.167,433.333 201.5,433C 205.925,431.268 207.425,428.435 206,424.5C 205.282,425.451 204.449,425.617 203.5,425C 205.213,423.622 206.547,421.955 207.5,420C 204.904,418.203 205.237,416.869 208.5,416C 207.701,414.251 208.368,412.918 210.5,412C 209.667,411.167 208.833,410.333 208,409.5C 206.667,410.833 205.333,412.167 204,413.5C 204.099,410.636 205.265,408.303 207.5,406.5C 216.521,400.656 225.188,394.322 233.5,387.5C 243.072,381.264 251.738,373.93 259.5,365.5C 264.833,361.5 269.5,356.833 273.5,351.5 Z"/></g>
<g><path style="opacity:1" fill="#d7d7d7" d="M 261.5,367.5 C 264.431,370.764 267.097,374.264 269.5,378C 269.335,379.117 269.002,380.284 268.5,381.5C 270.095,385.403 271.761,388.903 273.5,392C 273.036,399.044 273.036,406.211 273.5,413.5C 271.927,423.138 270.594,432.804 269.5,442.5C 267.833,446.5 266.167,450.5 264.5,454.5C 262.252,457.328 260.252,460.328 258.5,463.5C 258.631,445.74 259.964,428.074 262.5,410.5C 261.296,406.49 261.296,402.49 262.5,398.5C 262.21,396.956 261.544,395.623 260.5,394.5C 261.074,392.941 261.74,391.441 262.5,390C 260.439,386.552 258.439,383.052 256.5,379.5C 257.395,377.655 256.728,376.322 254.5,375.5C 256.117,372.216 258.45,369.549 261.5,367.5 Z"/></g>
<g><path style="opacity:1" fill="#cecece" d="M 269.5,359.5 C 272.044,360.468 274.211,362.135 276,364.5C 282.026,372.553 285.859,381.553 287.5,391.5C 286.705,394.29 286.705,397.29 287.5,400.5C 283.119,415.254 277.119,429.254 269.5,442.5C 270.594,432.804 271.927,423.138 273.5,413.5C 273.036,406.211 273.036,399.044 273.5,392C 271.761,388.903 270.095,385.403 268.5,381.5C 269.002,380.284 269.335,379.117 269.5,378C 267.097,374.264 264.431,370.764 261.5,367.5C 263.833,364.5 266.5,361.833 269.5,359.5 Z"/></g>
<g><path style="opacity:1" fill="#a8a8a8" d="M 352.5,352.5 C 358.125,358.132 363.458,364.132 368.5,370.5C 366.371,370.516 364.538,369.849 363,368.5C 357.213,371.046 351.38,374.213 345.5,378C 341.033,383.421 338.7,389.588 338.5,396.5C 334.294,387.014 331.627,377.014 330.5,366.5C 338.816,363.344 346.149,358.677 352.5,352.5 Z"/></g>
<g><path style="opacity:1" fill="#c1c1c1" d="M 275.5,353.5 C 281.876,359.359 289.21,363.692 297.5,366.5C 295.69,378.431 292.357,389.765 287.5,400.5C 286.705,397.29 286.705,394.29 287.5,391.5C 285.859,381.553 282.026,372.553 276,364.5C 274.211,362.135 272.044,360.468 269.5,359.5C 271.194,357.139 273.194,355.139 275.5,353.5 Z"/></g>
<g><path style="opacity:1" fill="#c8c8c8" d="M 150.5,377.5 C 158.84,377.334 167.173,377.5 175.5,378C 173.999,379.252 172.332,380.252 170.5,381C 174.819,381.076 179.152,380.909 183.5,380.5C 183.174,382.661 182.174,384.494 180.5,386C 185.521,385.608 190.521,385.775 195.5,386.5C 187.133,398.567 179.8,411.234 173.5,424.5C 159.127,431.336 144.127,433.17 128.5,430C 125.194,429.014 122.194,427.514 119.5,425.5C 119.137,417.62 120.97,410.286 125,403.5C 130.25,395.415 136.416,388.082 143.5,381.5C 145.833,380.167 148.167,378.833 150.5,377.5 Z"/></g>
<g><path style="opacity:1" fill="#b6b6b6" d="M 368.5,370.5 C 377.028,378.574 384.361,387.574 390.5,397.5C 385.338,394.559 380.338,391.893 375.5,389.5C 373.884,390.115 372.551,391.115 371.5,392.5C 370.914,392.291 370.414,391.957 370,391.5C 369.632,392.91 368.799,393.91 367.5,394.5C 366.167,393.5 364.833,392.5 363.5,391.5C 362.201,392.09 361.368,393.09 361,394.5C 360.667,394.167 360.333,393.833 360,393.5C 359.805,395.207 359.805,396.874 360,398.5C 359.333,399.833 358.667,399.833 358,398.5C 354.843,401.402 353.843,405.069 355,409.5C 353.474,410.545 352.641,412.045 352.5,414C 352.956,420.556 353.289,427.056 353.5,433.5C 347.705,421.564 342.705,409.23 338.5,396.5C 338.7,389.588 341.033,383.421 345.5,378C 351.38,374.213 357.213,371.046 363,368.5C 364.538,369.849 366.371,370.516 368.5,370.5 Z"/></g>
<g><path style="opacity:1" fill="#dfdfdf" d="M 461.5,367.5 C 474.125,373.745 485.292,382.078 495,392.5C 503.075,401.652 507.575,412.318 508.5,424.5C 504.302,428.26 499.302,430.427 493.5,431C 480.713,432.678 468.38,431.011 456.5,426C 448.993,422.745 441.659,419.245 434.5,415.5C 414.105,402.969 394.772,388.969 376.5,373.5C 376.052,369.276 377.719,367.609 381.5,368.5C 384.207,365.817 387.541,364.484 391.5,364.5C 393.873,365.936 395.873,365.603 397.5,363.5C 401.469,364.674 405.469,364.674 409.5,363.5C 426.805,366.259 444.138,367.593 461.5,367.5 Z"/></g>
<g><path style="opacity:1" fill="#5e5e5e" d="M 297.5,366.5 C 298.791,366.263 299.791,366.596 300.5,367.5C 298.892,370.991 297.892,374.658 297.5,378.5C 296,381.657 295,384.991 294.5,388.5C 286.576,423.766 284.409,459.433 288,495.5C 290.215,509.76 296.048,522.26 305.5,533C 307.806,535.139 310.473,536.639 313.5,537.5C 323.339,532.154 330.172,524.154 334,513.5C 335.871,507.553 337.538,501.553 339,495.5C 342.591,459.434 340.424,423.767 332.5,388.5C 331.833,385.5 331.167,382.5 330.5,379.5C 329.363,375.421 328.029,371.421 326.5,367.5C 327.568,366.566 328.901,366.232 330.5,366.5C 331.627,377.014 334.294,387.014 338.5,396.5C 342.705,409.23 347.705,421.564 353.5,433.5C 356.563,440.626 359.896,447.626 363.5,454.5C 363.631,455.376 363.298,456.043 362.5,456.5C 361.205,455.902 359.872,455.402 358.5,455C 358.833,454.667 359.167,454.333 359.5,454C 355.481,449.06 354.814,449.393 357.5,455C 357.167,455.333 356.833,455.667 356.5,456C 357.308,456.308 357.975,456.808 358.5,457.5C 357.965,459.271 357.131,459.604 356,458.5C 355.779,461.943 354.779,462.276 353,459.5C 352.211,463.091 352.378,466.591 353.5,470C 351.703,471.594 350.703,473.594 350.5,476C 352.387,479.839 351.387,482.672 347.5,484.5C 347.977,485.478 348.643,486.311 349.5,487C 348.965,488.462 348.965,490.128 349.5,492C 348.572,497.57 346.906,502.903 344.5,508C 344.53,511.385 344.697,514.885 345,518.5C 342.268,521.702 340.268,525.369 339,529.5C 336.808,531.363 334.642,533.196 332.5,535C 333.5,535.333 334.5,535.667 335.5,536C 330.53,539.616 325.864,542.616 321.5,545C 323.749,545.863 325.582,545.363 327,543.5C 328.399,544.227 329.899,544.727 331.5,545C 324.568,547.042 318.402,549.209 313,551.5C 311.112,551.204 309.278,550.704 307.5,550C 309.936,550.053 312.269,549.887 314.5,549.5C 307.779,549.199 301.445,547.532 295.5,544.5C 296.991,543.756 298.491,543.09 300,542.5C 301.388,543.554 302.888,543.72 304.5,543C 299.5,541.416 295,538.916 291,535.5C 290.508,534.451 290.674,533.451 291.5,532.5C 288.687,529.554 286.354,526.221 284.5,522.5C 285.167,521.5 285.833,520.5 286.5,519.5C 285.609,518.41 284.609,518.41 283.5,519.5C 282.5,518.167 281.5,516.833 280.5,515.5C 281.09,514.201 282.09,513.368 283.5,513C 281.854,511.445 281.521,509.779 282.5,508C 279.649,502.326 277.649,496.659 276.5,491C 277.128,488.2 278.128,485.533 279.5,483C 277.522,482.519 276.189,481.353 275.5,479.5C 276.956,476.317 276.623,473.317 274.5,470.5C 278.311,469.262 278.311,468.596 274.5,468.5C 274.286,466.856 274.62,465.356 275.5,464C 274.773,462.601 274.273,461.101 274,459.5C 273.085,460.328 272.419,461.328 272,462.5C 271.686,460.131 270.852,457.964 269.5,456C 270.452,454.7 270.452,453.533 269.5,452.5C 268.472,454.361 266.972,455.695 265,456.5C 264.536,455.906 264.369,455.239 264.5,454.5C 266.167,450.5 267.833,446.5 269.5,442.5C 277.119,429.254 283.119,415.254 287.5,400.5C 292.357,389.765 295.69,378.431 297.5,366.5 Z"/></g>
<g><path style="opacity:1" fill="#dadada" d="M 330.5,379.5 C 331.167,382.5 331.833,385.5 332.5,388.5C 319.84,391.138 307.174,391.138 294.5,388.5C 295,384.991 296,381.657 297.5,378.5C 298.399,377.528 299.566,376.862 301,376.5C 309.333,377.833 317.667,377.833 326,376.5C 327.893,377.008 329.393,378.008 330.5,379.5 Z"/></g>
<g><path style="opacity:1" fill="#cecece" d="M 300.5,367.5 C 309.149,368.669 317.815,368.669 326.5,367.5C 328.029,371.421 329.363,375.421 330.5,379.5C 329.393,378.008 327.893,377.008 326,376.5C 317.667,377.833 309.333,377.833 301,376.5C 299.566,376.862 298.399,377.528 297.5,378.5C 297.892,374.658 298.892,370.991 300.5,367.5 Z"/></g>
<g><path style="opacity:1" fill="#bdbdbd" d="M 390.5,397.5 C 397.94,406.611 404.606,416.278 410.5,426.5C 398.917,418.319 387.417,410.653 376,403.5C 375.323,405.689 374.156,406.022 372.5,404.5C 372.167,405 371.833,405.5 371.5,406C 372.33,407.465 372.496,408.965 372,410.5C 370.649,408.981 369.149,407.648 367.5,406.5C 366.859,408.296 365.859,409.796 364.5,411C 365.097,412.062 365.43,413.228 365.5,414.5C 364.833,416.167 364.167,417.833 363.5,419.5C 364.074,423.518 364.741,427.518 365.5,431.5C 364.638,433.087 363.971,434.754 363.5,436.5C 364.347,443.154 365.014,449.82 365.5,456.5C 364.833,455.833 364.167,455.167 363.5,454.5C 359.896,447.626 356.563,440.626 353.5,433.5C 353.289,427.056 352.956,420.556 352.5,414C 352.641,412.045 353.474,410.545 355,409.5C 353.843,405.069 354.843,401.402 358,398.5C 358.667,399.833 359.333,399.833 360,398.5C 359.805,396.874 359.805,395.207 360,393.5C 360.333,393.833 360.667,394.167 361,394.5C 361.368,393.09 362.201,392.09 363.5,391.5C 364.833,392.5 366.167,393.5 367.5,394.5C 368.799,393.91 369.632,392.91 370,391.5C 370.414,391.957 370.914,392.291 371.5,392.5C 372.551,391.115 373.884,390.115 375.5,389.5C 380.338,391.893 385.338,394.559 390.5,397.5 Z"/></g>
<g><path style="opacity:1" fill="#dfdfdf" d="M 254.5,375.5 C 256.728,376.322 257.395,377.655 256.5,379.5C 258.439,383.052 260.439,386.552 262.5,390C 261.74,391.441 261.074,392.941 260.5,394.5C 261.544,395.623 262.21,396.956 262.5,398.5C 261.296,402.49 261.296,406.49 262.5,410.5C 259.964,428.074 258.631,445.74 258.5,463.5C 249.406,481.856 235.74,495.69 217.5,505C 211.973,507.353 206.306,507.853 200.5,506.5C 196.799,499.303 195.133,491.636 195.5,483.5C 196.742,466.272 201.909,450.272 211,435.5C 223.428,413.919 237.928,393.919 254.5,375.5 Z"/></g>
<g><path style="opacity:1" fill="#e7e7e7" d="M 294.5,388.5 C 307.174,391.138 319.84,391.138 332.5,388.5C 340.424,423.767 342.591,459.434 339,495.5C 337.538,501.553 335.871,507.553 334,513.5C 330.172,524.154 323.339,532.154 313.5,537.5C 310.473,536.639 307.806,535.139 305.5,533C 296.048,522.26 290.215,509.76 288,495.5C 284.409,459.433 286.576,423.766 294.5,388.5 Z"/></g>
<g><path style="opacity:1" fill="#676767" d="M 206.5,406.5 C 206.833,406.5 207.167,406.5 207.5,406.5C 205.265,408.303 204.099,410.636 204,413.5C 205.333,412.167 206.667,410.833 208,409.5C 208.833,410.333 209.667,411.167 210.5,412C 208.368,412.918 207.701,414.251 208.5,416C 205.237,416.869 204.904,418.203 207.5,420C 206.547,421.955 205.213,423.622 203.5,425C 204.449,425.617 205.282,425.451 206,424.5C 207.425,428.435 205.925,431.268 201.5,433C 202.167,433.333 202.833,433.667 203.5,434C 203.275,436.319 201.942,438.319 199.5,440C 200.167,440.333 200.833,440.667 201.5,441C 199.339,445.272 196.673,448.439 193.5,450.5C 193.833,451.167 194.167,451.833 194.5,452.5C 193.248,454.001 192.248,455.668 191.5,457.5C 192.023,459.836 191.523,462.17 190,464.5C 189.692,463.692 189.192,463.025 188.5,462.5C 187.433,464.559 186.1,466.392 184.5,468C 184.953,472.893 184.953,477.893 184.5,483C 183.5,484 182.5,485 181.5,486C 181.665,487.117 181.998,488.284 182.5,489.5C 181.112,491.109 180.112,492.942 179.5,495C 180.649,496.73 180.649,498.396 179.5,500C 180.167,500.333 180.833,500.667 181.5,501C 179.888,501.72 178.388,501.554 177,500.5C 176.86,502.256 177.36,503.922 178.5,505.5C 177.975,506.192 177.308,506.692 176.5,507C 180.5,507.667 180.5,508.333 176.5,509C 177.552,510.716 176.886,511.716 174.5,512C 176.421,512.36 178.088,513.194 179.5,514.5C 179.333,514.833 179.167,515.167 179,515.5C 177.667,514.833 176.333,514.167 175,513.5C 174.228,514.849 173.061,515.682 171.5,516C 172.634,517.016 172.301,517.683 170.5,518C 172.116,518.615 173.449,519.615 174.5,521C 172.203,521.018 169.869,520.851 167.5,520.5C 167.17,523.472 168.17,525.638 170.5,527C 165.894,527.342 161.394,526.842 157,525.5C 154.832,526.629 154.332,528.129 155.5,530C 152.937,531.079 150.271,531.579 147.5,531.5C 123.369,514.371 103.369,493.371 87.5,468.5C 88.6063,467.851 89.6063,467.517 90.5,467.5C 89.6171,466.452 88.9504,465.285 88.5,464C 90.039,460.993 91.8723,460.826 94,463.5C 97.8447,462.773 101.845,462.773 106,463.5C 106.5,463 107,462.5 107.5,462C 105.112,459.95 103.112,457.616 101.5,455C 101.833,454.5 102.167,454 102.5,453.5C 104.674,455.781 106.674,455.781 108.5,453.5C 107.42,450.952 105.42,448.785 102.5,447C 105.03,447.335 107.364,447.168 109.5,446.5C 110.613,448.031 112.113,449.031 114,449.5C 114.833,449.333 115.667,449.167 116.5,449C 113.823,446.655 111.49,443.988 109.5,441C 111.384,440.784 113.051,440.117 114.5,439C 110.821,435.591 111.154,433.258 115.5,432C 114.159,429.064 113.492,425.897 113.5,422.5C 116.797,422.671 117.131,422.005 114.5,420.5C 115.391,419.41 116.391,419.41 117.5,420.5C 118.17,422.291 118.837,423.958 119.5,425.5C 122.194,427.514 125.194,429.014 128.5,430C 144.127,433.17 159.127,431.336 173.5,424.5C 185.273,419.783 196.273,413.783 206.5,406.5 Z"/></g>
<g><path style="opacity:1" fill="#676767" d="M 434.5,415.5 C 441.659,419.245 448.993,422.745 456.5,426C 468.38,431.011 480.713,432.678 493.5,431C 499.302,430.427 504.302,428.26 508.5,424.5C 508.57,419.524 510.237,418.691 513.5,422C 512.833,422.333 512.167,422.667 511.5,423C 512.91,423.368 513.91,424.201 514.5,425.5C 513.816,428.419 512.482,430.919 510.5,433C 512.5,433 514.5,433 516.5,433C 514.077,435.659 512.744,438.492 512.5,441.5C 514.009,439.085 515.676,438.919 517.5,441C 516.932,442.652 515.599,444.318 513.5,446C 514.448,446.483 515.448,446.649 516.5,446.5C 516.281,447.675 516.614,448.675 517.5,449.5C 523.764,446.742 523.764,448.242 517.5,454C 518,454.5 518.5,455 519,455.5C 520.764,453.741 522.931,453.574 525.5,455C 521.148,455.419 520.815,456.086 524.5,457C 523.122,458.713 521.455,460.047 519.5,461C 520.325,462.688 521.325,462.855 522.5,461.5C 523.333,462.5 524.167,463.5 525,464.5C 527.078,461.646 529.245,461.312 531.5,463.5C 533.409,462.652 535.409,462.318 537.5,462.5C 537.528,464.582 536.861,466.416 535.5,468C 536.959,467.645 538.293,467.811 539.5,468.5C 522.985,494.018 502.318,515.685 477.5,533.5C 476.603,532.402 475.77,532.402 475,533.5C 473.451,530.997 471.784,530.997 470,533.5C 469.213,531.152 469.379,528.985 470.5,527C 468.522,524.985 466.688,525.152 465,527.5C 464,526.833 463,526.167 462,525.5C 459.61,526.724 457.11,527.224 454.5,527C 455.742,524.61 457.409,521.944 459.5,519C 456.839,519.598 454.173,519.432 451.5,518.5C 452.376,517.749 453.376,517.249 454.5,517C 452.232,514.032 449.232,512.366 445.5,512C 446.833,511 446.833,510 445.5,509C 446.308,508.692 446.975,508.192 447.5,507.5C 446.264,505.689 446.264,503.856 447.5,502C 444.647,500.249 443.98,497.916 445.5,495C 444.672,494.085 443.672,493.419 442.5,493C 443.167,492.667 443.833,492.333 444.5,492C 442.575,488.145 440.908,484.145 439.5,480C 439.833,479 440.167,478 440.5,477C 438.083,475.327 438.083,473.494 440.5,471.5C 439.37,467.617 437.37,464.283 434.5,461.5C 435.833,460.167 435.833,458.833 434.5,457.5C 432.639,456.472 431.305,454.972 430.5,453C 431.5,452.667 432.5,452.333 433.5,452C 430.785,451.125 429.452,449.292 429.5,446.5C 428.448,446.649 427.448,446.483 426.5,446C 424.845,443.753 424.512,441.42 425.5,439C 423.833,437 422.167,435 420.5,433C 423.841,431.472 423.841,429.472 420.5,427C 422.332,426.252 423.999,425.252 425.5,424C 423.109,422.691 423.109,421.691 425.5,421C 425.5,419.667 425.5,418.333 425.5,417C 423.729,416.465 423.396,415.631 424.5,414.5C 427.572,415.87 430.739,416.87 434,417.5C 434.464,416.906 434.631,416.239 434.5,415.5 Z"/></g>
<g><path style="opacity:1" fill="#c6c6c6" d="M 410.5,426.5 C 420.009,440.192 426.843,455.192 431,471.5C 433.791,483.915 432.291,495.748 426.5,507C 418.223,508.243 410.556,506.577 403.5,502C 386.635,490.305 373.968,475.138 365.5,456.5C 365.014,449.82 364.347,443.154 363.5,436.5C 363.971,434.754 364.638,433.087 365.5,431.5C 364.741,427.518 364.074,423.518 363.5,419.5C 364.167,417.833 364.833,416.167 365.5,414.5C 365.43,413.228 365.097,412.062 364.5,411C 365.859,409.796 366.859,408.296 367.5,406.5C 369.149,407.648 370.649,408.981 372,410.5C 372.496,408.965 372.33,407.465 371.5,406C 371.833,405.5 372.167,405 372.5,404.5C 374.156,406.022 375.323,405.689 376,403.5C 387.417,410.653 398.917,418.319 410.5,426.5 Z"/></g>
</svg>
